<svg version="1" xmlns="http://www.w3.org/2000/svg" width="493.333" height="493.333" viewBox="0 0 370.000000 370.000000"><path d="M156.5 15.4C132.7 19.6 107.3 30 88 43.7c-11.7 8.4-31.5 28-39.3 39-8.1 11.5-15 24.1-19.7 36-3.9 9.9-8.4 25.2-9.5 32.3-.3 1.9-.9 6-1.4 9-1.3 8.4-1.1 31.3.4 42.5 7.6 56.4 41.1 103.8 91.1 129 24.4 12.2 47.8 17.6 76.1 17.7 9.5 0 17.6-.3 18-.5.4-.3 3.3-.8 6.3-1.1 14-1.7 36.8-8.9 52.1-16.7 21.5-10.8 45.8-31.7 60.1-51.9 12.3-17.3 22.5-39.9 27.2-60.2 3-12.7 4.3-27 4-40.6-1.7-60-32.2-112.1-83.5-142.6-14.5-8.6-39.3-17.8-54.5-20-2.1-.4-6.4-1-9.4-1.5-10.6-1.8-35.5-1.1-49.5 1.3zm50.1 22.9c1.2.3 3.8.8 5.8 1.1 6.9 1.1 12.3 2.6 21.2 5.7 34.8 12.3 64.8 39.1 80.9 72.4 15.4 31.7 18.5 59.9 11 98-2.1 10.3-10.9 31.3-18.1 42.7-20.1 32.1-56 56.8-92.9 64.2-12 2.4-16.9 2.8-29.5 2.9-45.5.1-87.9-21.4-116-58.8-7.9-10.5-18.2-31.3-22-44.5-10.5-36.6-7-73.8 10.2-107.3 19.6-38.1 58.5-67.3 100.3-75.1 4.4-.8 8.9-1.7 10-1.9 2.8-.6 36.5-.1 39.1.6z"/><path d="M176.9 96.9c-.1.3-.1.8-.1 1.2 0 .3-.9 1.1-2.1 1.8-1.8 1.1-2 1.1-.9 0 1.8-1.9 1.5-2.8-.8-2.6-1.1.1-2 .6-2 1.1 0 .5-.3.6-.7.3-.3-.4-1.2-.2-2 .4-.7.6-1.3.8-1.3.4s-.7-.2-1.5.5-1.5.9-1.5.5c0-.3-1.2.3-2.6 1.4-1.5 1.1-3 1.9-3.4 1.6-.5-.3-1.9.8-3.3 2.4-1.4 1.7-2.7 2.8-3 2.5-.6-.7-6.7 7.7-6.7 9.3 0 .7-.6 1.3-1.2 1.3-.9 0-.8.4.2 1 1.3.9.7 1.4-1.2 1.1-1.4-.2-.9 1.1 1 2.6 1.6 1.3 1.6 1.3-.3 1.1-1.7-.3-2 .2-1.9 2.9.1 1.8-.1 3.1-.5 2.9-.3-.2-.6 2.2-.6 5.4 0 4.6.3 5.6 1.4 5.2 1-.4 1.2-.1.5.9-1.2 2-1.6 4.9-.6 4.9.5 0 .9.6 1 1.2.2 2.8.9 4.7 2.1 6.2.7.9 1 1.6.6 1.6-.5 0 .2.8 1.3 1.9 1.2 1 1.8 2.2 1.4 2.6-.4.5-.2.5.4.2.7-.4 1.7 0 2.4.8s.9 1.5.5 1.5-.2.7.5 1.5c.6.8 1.7 1.3 2.3 1.2.7-.1 1.1.4.9 1.2-.3 1.2 0 1.2 1.3.1 1.3-1.1 1.5-1 .9.4-.4 1-.1 1.7.7 1.8.8 0 1.9.2 2.4.3.6.2 1.5.3 2 .4.6.1.3.6-.5 1.2-1.3.9-1.3 1 .2.6.9-.3 1.9.1 2.2.9.3.9 1.2 1.4 1.9 1.1.6-.2 2.4.5 4 1.5 1.5 1.1 2.7 1.6 2.7 1.2 0-.3.6-.1 1.3.5.8.6 1.7.8 2 .4.4-.3.7-.1.7.6s.5.9 1 .6c.6-.3 1-.1 1 .5s.4.9.9.6c.5-.4 1.2 0 1.4.6.4 1 .6 1 .6 0 .1-1 .5-1 1.7.2.8.9 2 1.4 2.5 1.1.5-.4.9-.1.9.6s.3 1 .6.6c.4-.3 2.2.5 4 2 1.9 1.4 3.4 2.1 3.4 1.7 0-.5.7 0 1.5 1 .8 1.1 1.5 1.4 1.5.7s.5-.9 1-.6c.6.4.8 1 .5 1.4-.6 1.1 4 5.3 4.8 4.4.4-.3.7-.1.7.5 0 .7-.6 1.2-1.2 1.2-.9 0-.8.4.2 1 .8.5 1.1 1 .6 1-.5 0-.3.6.3 1.4.6.7.9 2.1.5 3-.4.9-.1 1.6.6 1.6 1 0 1 .3 0 1.5-1 1.1-1 1.8-.1 2.9.9 1.1.9 1.5 0 1.8-.7.2-1.3 1.3-1.4 2.5 0 1.1-.8 3.2-1.7 4.5-1.3 2-1.4 2.8-.5 3.8.9 1 .9 1.2-.4.7-2.1-.7-3.9 1.1-3.1 3.2.5 1.4.4 1.4-1.4.1-1.9-1.4-1.9-1.4 0 .8 1.1 1.2 1.4 2.2.9 2.2-.6 0-1.6-.7-2.3-1.5-.8-1-1.8-1.2-2.9-.6-.9.5-2.2.6-2.8.4-.7-.3-1.3 0-1.3.7 0 1.3-3.2.9-4.2-.5-.5-.6-.8-.5-.8.3s-.5 1-1.2.5c-1.8-1.1-7.8-1.1-7.8-.1 0 .5-.5.6-1 .3-.6-.4-.7-1.2-.3-1.8.4-.7-.5-.4-2.1.6l-2.8 1.9.7-2.4c.4-1.5.3-1.9-.3-1-.7 1.1-1 1-1.6-.3-.3-.9-1-1.4-1.5-1.1-.5.4-1.1.1-1.3-.4-.2-.6-1-1.2-1.8-1.4-3.5-.6-5.9-1.8-6.4-3.2-.3-.8-1-1.3-1.4-1-.5.3-2.1-.6-3.7-2-1.5-1.3-3.3-2.4-3.9-2.4-.6 0-.5.4.3.9 1.1.7 1 1-.4 1.8-1 .6-1.7 2.2-1.7 3.6 0 1.6-.5 2.4-1.1 2-.5-.3-.7-.1-.3.5.3.6.2 1.4-.4 1.7-.8.5-.7 1.2.2 2.3 1.1 1.3 1.1 1.5-.4 1-2-.8-3.1 2.5-1.4 4.3.8.9.7 1.1-.7.6-1.5-.6-1.6-.4-.7 1.3.9 1.6.8 1.8-.5 1.4-.8-.4-1.5-.1-1.5.6 0 .6.4.9.9.6.5-.3 1.1.1 1.5.9.3.9 1.2 1.2 2.2.8 1.3-.5 1.5-.3.9.8-.4.8-.4 1.1 0 .6.5-.4 1.8.1 2.9 1 1.8 1.6 1.9 1.6.8.1-1.2-1.5-1.1-1.7.7-1.5 1.6.1 2 .6 1.6 2.2-.3 1.1-.2 1.4.1.7.5-1 1-.8 2.1.8 1.2 1.7 1.8 1.9 2.9.9.9-.7 1.4-.8 1.4-.1 0 .9 2.2 2.1 5.3 2.8.4.1.8.3 1 .4.1.1 1.6.3 3.2.5 1.7.1 3 .3 3 .5 0 .1 1.5.3 3.3.5 1.8.2 3 0 2.7-.5-.3-.4.2-1.1 1.1-1.4.8-.3 1.2-.2.9.4-1 1.6.6 3.4 1.6 1.9.6-.9 1.2-1 1.7-.4 1.2 1.7 5.1 1.5 4.5-.3-.5-1.1 0-1 2.3.4 1.5 1.1 2.5 1.4 2.1.7-.4-.6-.3-1.4.3-1.8.5-.3 1-.2 1 .4 0 .5 1.5.9 3.4.8 2.9-.2 3.2-.4 2.3-1.6-.9-1.2-.9-1.3 0-.7.7.4 2.2.9 3.2 1.1 1.5.3 1.8 0 1.4-1.3-.6-1.5-.5-1.5 1-.3 1.4 1.1 2 1.1 3.2.1.8-.7 1.5-.9 1.5-.5 0 .5.8.1 1.8-.8.9-.8 2-1.5 2.4-1.4.4.1 1.8-.7 3-1.8 1.3-1.1 2.5-2 2.8-2 .3 0 1.1-.4 1.8-.9 1-.6 1-1.1.1-2.2-1.2-1.5 0-2 1.7-.6.5.4.8.6.7.4-.1-.2.8-1.5 2-2.9 1.2-1.3 2.2-2.9 2.2-3.4s.6-1.4 1.4-1.8c.7-.5 1-1.4.7-2-.4-.6-.2-1.1.5-1.1s.4-.6-.7-1.4c-1-.8-1.6-1.8-1.2-2.2.4-.4.2-1.4-.4-2.3-1-1.3-.9-1.3.7.1 1.4 1.2 2.5 1.4 3.5.8 1.2-.8 1.2-1 .1-1-1 0-1.1-.3-.2-1.3.6-.8.8-1.7.4-2-.3-.4-.2-.7.4-.7.5 0 .9-1.6.8-3.6-.1-1.9.2-3.7.7-4 .5-.3.5-1.1 0-1.7-.5-.7-.8-3.3-.7-5.9.1-3.8-.1-4.5-1.2-3.7-1.6 1.4-1.7.5-.2-2.3.8-1.5.8-1.9 0-1.4-.7.5-1-.1-.7-1.6.4-2.7-2.2-7.1-3.7-6.1-.6.4-.8 0-.5-.8.7-1.8-2.5-6.4-4.4-6.4-.7 0-1.3-.6-1.3-1.3 0-.6-.4-1.3-1-1.4-.5-.1-1.6-.8-2.3-1.5-.8-.7-1.9-1-2.5-.6-.6.4-.8 0-.4-1 .4-1.2.2-1.4-1-1-1.2.5-1.4.3-.8-.8.4-.8.5-1.1 0-.7-.4.4-2.1-.2-3.6-1.3-1.6-1.1-2.9-1.7-2.9-1.2 0 .4-.5.1-1-.7-.7-1.1-1-1.1-1-.2 0 .7-.5 1-1 .7-.6-.4-.8-1.1-.5-1.6.4-.5-.1-1.2-1-1.6-1-.3-2.1 0-2.6.8s-.9 1.1-1 .6c-.1-.4-.3-1.2-.4-1.7-.1-.6-.3-1.3-.4-1.6 0-.4-.9 0-1.8.7-1.5 1.2-1.6 1.2-1.1-.3.9-2.2-1.8-1.7-3.5.7-.9 1.1-1.9 1.5-2.7 1-.9-.6-1.1-.4-.5.6.7 1.1.5 1.1-1.1-.1-1.8-1.4-1.8-1.4-.4.5s1.4 1.9-.3.6c-1.3-1-1.5-1.7-.6-2.7.6-.8 1.6-1.1 2.2-.7.6.3.7.1.3-.5-.4-.7.1-1 1.4-.7 1.1.2 2 0 2-.6 0-.5-.4-.9-1-.9-2.1 0-2.5-.2-4.2-1.7-1-.9-1.8-1.3-1.8-.8 0 .4-.7.2-1.5-.5s-1.5-.9-1.5-.4c0 .4-1.1-.3-2.5-1.6s-2.5-1.9-2.5-1.4-.5.1-1.1-.9c-.6-.9-1.4-1.5-2-1.2-.5.4-.9 0-.9-.7s-.8-2.3-1.8-3.5c-1.2-1.7-2.1-2-3.2-1.3-1.3.9-1.3 1.1 0 1.9.8.5 1.7.8 2.1.5.4-.2.7.5.6 1.6-.2 2.6-.8 2.5-3-.6-1.7-2.2-1.7-2.7-.4-4.2.8-.9 1.4-3.1 1.2-4.7-.1-1.7.3-3.6.9-4.4.8-1.1.8-1.3-.1-.7-.7.4-1.3.2-1.3-.3 0-.6.5-1.1 1.1-1.1.5 0 .8-.4.5-.9-.3-.5.1-1.4.8-2.1.8-.6 1.3-2 1.1-3.2-.3-1.4 0-1.8 1.1-1.4.8.3 1.3.2 1-.2-.5-.9 5.4-4.2 8.9-5 2.9-.7 13.6-.5 16.5.3 1.4.3 3 .7 3.5.8.6.2 1.5.6 2.2 1 .6.4 1.4.3 1.8-.3.3-.5 1.1-1 1.7-1 .6 0 .5.7-.3 1.7-1 1.1-1 1.4-.1.9.7-.4 1.2-.2 1.2.4 0 .7.8.9 2 .5 1.1-.4 1.9-.3 1.8.2-.2.4 0 .8.4.8.3 0 1.8 1.1 3.2 2.4 1.4 1.4 2.6 2 2.6 1.5s.5-.2 1 .6c.8 1.3 1 1.2 1.1-.5.1-1.1.1-2.6 0-3.4-.2-.7.2-1 .8-.6.6.3 1.1.1 1.1-.4 0-2.2.2-2.6 1.7-4.4.9-.9 1.3-1.7.8-1.7-.4 0-.1-.7.6-1.6.8-.9 1.4-2.4 1.4-3.3 0-.9.6-1.5 1.3-1.3 1 .2 1-.2 0-1.8-.7-1.1-1.7-2-2.1-2-.5 0-1.5-.7-2.4-1.5-.8-.8-1.8-1.3-2.3-1-.4.3-1.1-.2-1.4-1.1-.4-.9-.9-1.4-1.3-1.1-.3.4-1.2.2-2-.4-.7-.6-1.3-.8-1.3-.5 0 .4-1 .1-2.2-.6-1.3-.6-3-1.3-3.8-1.4-2.8-.3-4.5-.9-5.3-1.9-.5-.6-.5.1-.2 1.4.5 1.6.4 2.1-.4 1.7-.6-.4-1.1-1.4-1.1-2.2 0-.8-.7-1.4-1.5-1.4s-1.5.5-1.5 1.1c0 .5-.5.7-1 .4-.6-.4-.8-1-.6-1.3.2-.4-1.9-.7-4.9-.7-4.3 0-5.2.2-4.7 1.5s.4 1.3-1.2 0c-1.8-1.4-8.5-2.2-8.7-1.1zm8.2 1.8c1.2 1.2 4.2.6 3.4-.6-.2-.4 1.2-.7 3.2-.6 2.5 0 4 .7 5.1 2.3 1.3 2 1.3 2.2-.2 1.6-1.9-.7-2.1.6-.3 2.6.9 1.1.8 1.1-.8 0-1.9-1.4-1.9-1.4-.5.4 1.3 1.8 1.3 1.9 0 1.2-.8-.4-.7-.1.3.7 1.4 1.2 1.5 1.6.4 2.6-.8.6-1.7.8-2 .4-.4-.3-.7-.1-.7.5 0 .7-.5 1.2-1.2 1.2-.9 0-.9-.3 0-1.2 1.8-1.8 1.5-3.1-.5-2.4-1.5.5-1.5.4.1-.9 1.9-1.4 1.2-2.1-1.6-1.6-.5 0-.8-.4-.8-1s.8-.8 1.9-.4c2.3.7 3.8-1.2 2.2-2.8-.9-.9-1.1-.8-.6.5.4 1.1.2 1.8-.5 1.8-.6 0-.9-.4-.5-.9.3-.5 0-1.3-.6-1.7-.8-.4-.9-.3-.5.4.4.8.2 1-.8.6-1.6-.6-4.9 3.5-4.4 5.6.2.7-.4 1.5-1.2 1.7-1.3.4-1.3.3 0-.6 1.3-1 1.3-1.1 0-1.2-.8-.1-1.9-.1-2.3 0-.5.1-.6-.3-.2-.9.3-.6 0-.7-.9-.4-.9.3-1.8 0-2.1-.8-.6-1.5-3.5-2.1-3.5-.6 0 .4.8.8 1.7.8 2.1 0 .8 1.3-1.7 1.7-1.4.2-1.8-.2-1.5-1.7.2-1-.3-2.4-1.1-3.1-1.8-1.5-1.8-2.5.2-3.3 1.4-.5 1.5-.4.5.8-.8.9-.8 1.6-.2 2 .5.4 1.2.2 1.6-.4.4-.6 1.1-.8 1.6-.5.8.5 1.3-.6 1.1-2.6-.1-1 6.7-.4 7.9.8zm14.5.1c-.2.4.4 1.3 1.4 2 1.6 1 2.1.9 2.9-.6.6-.9 1.1-1.2 1.1-.6s1 1.1 2.3 1c1.2-.1 3.2.4 4.5 1.2 1.2.8 2.2 1.1 2.2.7 0-.4.7-.2 1.5.5s1.5.9 1.5.4.5-.1 1.1.9c.8 1.4.8 2.2-.1 3-.9.9-1.1.9-.7.1.4-.7 0-1.7-.8-2.4s-1.5-.9-1.5-.5-.8.1-1.7-.6c-1.4-1.2-1.6-1.2-.8 0 .6 1 .4 1.2-.5.6s-1.1-.4-.5.5c.6.9.4 1.1-.6.6-.8-.4-.6-.1.4.7 1 .9 1.4 1.8.8 2.1-.5.3-1.2 0-1.4-.6-.3-.7-.4 0-.4 1.7.1 1.6.9 3.6 1.7 4.3 1.3 1.2 1.3 1.3 0 .9-.8-.2-1.9-1.3-2.5-2.5-.5-1.2-1.3-2.2-1.8-2.2-.4 0-.3.9.3 2 1.5 2.9.5 2.5-1.5-.6-.9-1.5-1.3-2.4-.8-2.1.5.3.9-.3.9-1.3s-.5-1.6-1-1.3c-.5.3-.6.2-.3-.3.3-.6.2-1.6-.4-2.4-.7-1.3-.9-1.3-.9 0s-.1 1.3-1 0-1-1.3-1 0c0 1.2-.2 1.2-.9.2-.6-1-1-1-2.1.3s-1 1.4.6.9c1.8-.7 1.8-.7.1 1.3-1.7 1.9-1.7 2.1.5 3.6 1.8 1.3 1.9 1.5.4 1-1.6-.5-1.8-.3-1.3 1.1.5 1.1.3 1.5-.5 1-.7-.5-.8-.3-.3.7.7 1.1.6 1.2-.7.2-.8-.7-1.8-1-2.2-.6-.4.4-.4-.1-.1-1.2.6-1.6.5-1.7-.3-.5-2.1 2.8 1.3 4.7 4.7 2.6 1-.7 1.2-.6.6.4-.6.9-.4 1.1.5.5.9-.6 1.1-.4.5.5-.6.9-.4 1.1.5.5.9-.6 1.1-.4.5.4-.6 1-.2 1 1.6 0 1.3-.7 2.8-1.2 3.2-1.1.5.1.5-.3.1-.9-.4-.8-.3-.9.5-.5.6.4.8 1.2.5 1.8-.4.6-.3.8.3.5.5-.3 1 0 1 .8s-.4 1.2-.8 1c-.4-.3-.5.5-.1 1.7.3 1.4.2 1.9-.7 1.4-.6-.4-.9-1.1-.6-1.6.3-.4-.1-1.3-.9-1.9-1.1-.9-1.5-.8-2 .5s-.9 1.4-2.1.4c-.8-.7-1.5-.9-1.5-.5s-.7.2-1.5-.5c-.8-.6-1.9-.9-2.5-.5-.5.3-1 .2-1-.3s-2-.8-4.5-.7c-2.5.2-4.5-.1-4.5-.7 0-.5.4-.7.9-.4.5.3 1.5-.2 2.2-1.1 1.2-1.4 1.2-1.6 0-.8-.9.5-1.2.4-.7-.3.3-.6.2-1.3-.4-1.7-.6-.4-.8-1-.5-1.5.3-.5 0-1.2-.6-1.6-.7-.4-1-.3-.6.2.3.5-.1 1.8-.9 2.9-.8 1.1-1.4 1.3-1.4.6 0-.8-.6-1.1-1.6-.7-.9.3-1.2.2-.9-.4.4-.6.3-1-.2-.9-1.9.3-3.4-.2-2.8-1 .3-.5 0-1.3-.6-1.7-.7-.4-.9-.3-.5.4.3.6.2 1.3-.3 1.7-.6.3-.8 1.3-.5 2.3.5 1.3.4 1.4-.4.3-.5-.7-1.2-.9-1.5-.5-.3.5.7 1.8 2.2 2.9 2.6 1.9 2.6 1.9 1.2 0-1.4-1.9-1.4-1.9.4-.3 1.5 1.4 1.7 2 .7 3-.9.9-1.2.9-1.2-.3-.1-1.1-.3-1-1.3.3-.8.9-2 1.8-2.7 2-.8.2-2.1.9-2.8 1.6-.8.7-1.8 1-2.3.7-.9-.6-1-.2-1.3 3.6 0 1.1-.8 2.6-1.7 3.2-1.1.9-1.5 2.7-1.4 6.7.1 3.6-.3 6.1-1.2 7.2-1.3 1.4-1.2 2 .8 4.7 1.7 2.3 2.8 2.9 5 2.6 1.8-.2 3 .2 3.3 1.1.3.9 1 1.3 1.5 1 .4-.3 1.6.3 2.6 1.4 1 1.1 2.1 1.7 2.6 1.5.4-.3 1-.1 1.4.5.4.6 1 .8 1.5.5.4-.3 1.3.1 1.9.9.9 1.1.6 1.8-1.4 3.4l-2.5 2 2.5 1.6c2.4 1.6 2.6 1.5 4.7-.4 1.2-1.1 2.9-1.9 3.8-1.8.8.1 2.1-.1 2.9-.6.9-.6 1.2-.5.8.1-.4.6 0 1.6.7 2.2 1 .8 1.6.9 2.1.1.3-.5 1.2-1 1.8-1 .8 0 .8.3-.1.9-1.1.6-1 1 .5 1.6 1 .5 2.6.9 3.6.9.9.1 3.2 1.3 5 2.7 1.7 1.4 3.7 2.7 4.2 2.8.6.1 1.7.9 2.6 1.7.9.8 1.9 1.1 2.4.7.4-.5.5-.3.2.3-.4.7 0 1.7.8 2.4s1.5.9 1.5.4.9.2 2 1.6c1.3 1.8 1.6 2.8.8 3.7-1 1.2-.5 1.5 1.9 1.2.7-.1 2.6 3 2.9 4.8.1.7-.2 1.3-.8 1.3-.6 0-.5.6.2 1.5 1 1.2 1 1.8 0 3-1.2 1.4-.5 2 2.1 1.7.4-.1.5 1.7.4 3.8-.2 2.2.1 4.3.6 4.6.5.3.6 1.1.2 1.7-.4.6-.8 2.3-.9 3.7-.2 2.3-.9 5.7-1.4 7-.1.3-.2.9 0 1.5.1.5-.7.2-1.7-.7-1.2-1.2-2.3-1.4-3.4-.7-1.2.6-2.1.4-3-.9-1.3-1.6-1.3-1.6.6-.2 1.9 1.4 1.9 1.4.5-.5-1.1-1.6-1.1-1.7 0-.8 1.9 1.7 3.3 1.6 2.7-.2-.4-.8-.2-1.7.3-2 .9-.6 1.4.8 1.1 2.8-.1.5.2.6.7.3.4-.2.8-2.3.7-4.5-.1-2.4.3-3.7.9-3.4.5.4-.1-.9-1.4-2.7-1.3-1.9-1.8-3-.9-2.6.7.4.3-.2-1-1.3-1.3-1.2-1.9-2.1-1.3-2.1.6 0 1.8.7 2.6 1.6 2.1 2 2.1.4 0-2.2-.8-1-1.3-1.3-.9-.7.4.9.1 1.1-1.1.6-1.4-.5-1.4-.8.6-2.3 2.3-1.7 2.3-1.8-2.3-1.6-2.6.2-5 .6-5.4.9-.3.4-1.1.7-1.7.7-.6 0-.2-.7.8-1.5 1.5-1.1 1.7-1.7.7-2.9-.9-1.1-.9-1.6 0-2.2.8-.5.9-.3.4.6-.6.9-.4 1.1.5.5.9-.6 1.1-.4.5.5-.5.8-.4 1.1.3.6.6-.4.8-1.4.5-2.3-.4-1-.2-1.4.4-1 .6.4 1.7-.1 2.4-1.1 1.3-1.5 1.2-1.6-.3-.4-1.5 1.2-1.7 1.1-1.3-.7.2-1.1-.1-2.4-.7-2.7-.7-.5-.8-.2-.3.7.5.8.5 1.1.1.7-.4-.3-.6-.8-.4-1.1.2-.3-.6-1.3-1.7-2.3-1.2-1.1-1.4-1.5-.5-.9 1.1.7 1.1.5-.3-1.1-.9-1.1-1.4-2.4-1-2.8.5-.4.1-.6-.7-.4-.8.2-1.9.7-2.3 1.3-.5.6-.6.1-.3-1 .6-2 .6-2-.9-.1-.8 1.1-1.5 1.6-1.5 1.2 0-.5-.8-.2-1.7.5-1.5 1.2-1.6 1.2-.8-.1s.7-1.3-1.1 0c-1 .8-1.6 1-1.2.6.4-.5.2-1.6-.5-2.4-.8-1.1-.8-1.4 0-.9.7.5 1-.1.9-1.8-.2-1.3 0-2.2.4-2 .4.3 1.3-.2 2-1 .9-1 .9-1.5.1-1.5-.6 0-1.1.5-1.1 1.1 0 .5-.5.7-1.1.4-.6-.4-.8-1.4-.5-2.4.6-1.5.5-1.5-.7.1-1.2 1.5-1.4 1.5-2.5 0-1-1.5-1.1-1.5-.5.3.6 1.8.5 1.8-1 .6-1.3-1.1-1.7-1.1-1.7-.1 0 .8-.3 1-.7.6-.5-.4.1-1.4 1.1-2.2 1.1-.8 1.5-1.4.8-1.4-.6 0-1.7.9-2.5 2.1-.9 1.3-1.7 1.6-2.2 1-.3-.6-.1-1.1.5-1.1s.8-.5.5-1.1c-.5-.6-1.1-.4-1.9.6-1.1 1.5-1.2 1.3-1.2-1.1.1-1.9-.4-2.8-1.7-3-1.7-.2-1.7-.1-.3 1.5 1.9 2 2 3.1.5 3.1-.5 0-.8-.4-.5-.9.3-.5-.1-1.4-.9-2.1-1.4-1.2-1.6-1-1.4.6.2 1.5-2.6 2.2-4.1 1.1-.8-.6-1.2-.7-.8-.3.4.5.3 1.5-.3 2.3-.8.8-.8 1.3-.1 1.3.6 0 1.2-.5 1.4-1 .2-.6.9-.1 1.6 1.1.8 1.2.9 1.8.3 1.5-.6-.4-.9-.1-.5.7.6 1.7-2.1 4.3-3.1 2.7-.3-.5.1-1 1-1 2 0 1.5-2.2-.6-2.8-1.1-.3-1.1-.2.1.7.8.6 1.1 1.1.5 1.2-.5 0-2 .2-3.3.5-1.3.2-2.1 0-1.7-.5.3-.5 0-1.3-.6-1.7-.8-.5-.9-.3-.4.6.5.9.4 1.1-.4.6-.6-.4-.9-1.2-.5-1.7.4-.6 1.1-.5 2 .2 1.2 1 1.7.9 2.7 0 .9-1 .8-1.2-.7-.9-1 .2-2.1-.4-2.3-1.2-.4-1.3-.3-1.3.7 0s1.1 1.2.6-.3c-.4-1.2-.2-1.6.7-1.2.6.4.4 0-.6-.8-1-.9-1.4-1.8-.8-2.1 1-.7 1-2.4-.2-4.4-1-1.5.5-1.6 1.9-.2.7.7 1.1.6 1.1-.4 0-.8-.5-1.2-1-.9-.6.3-.7.1-.3-.5.5-.8.2-1-.8-.6s-1.6.1-1.6-.7c0-.8-.6-.5-1.4.6-.8 1.1-1.3 2.7-1.1 3.6.2.8-.3 1.6-1.1 1.6-1.1 0-1.1-.3-.1-1.6 1-1.2.9-1.3-.3-.6-1.3.8-1.3.7 0-1 .8-1.1 1-1.6.3-1.1-.9.5-1.1.2-.7-1.1.5-1.5.4-1.6-.6-.3s-1.1 1.2-.6-.3c.4-1.2.2-1.6-.6-1.1-.7.5-.8.3-.3-.6.6-.9.4-1.1-.6-.5-1.1.7-1.1.5.1-1 .8-1 1-1.6.3-1.2-.6.4-1.4.3-1.8-.3-.4-.7-1.2-.7-2.4 0-1 .5-2.1.6-2.5.3-.3-.3-.6 0-.6.8-.1.8-.7.3-1.5-1.1-.8-1.4-1.4-2-1.5-1.4 0 .5-.6 1.8-1.3 2.8-1.2 1.6-1.4 1.6-1.4.2 0-.9.4-1.6.9-1.6.4 0 .8-.5.8-1.1 0-.5-.4-.8-.9-.5-.5.3-1.5-.2-2.2-1.2-1.3-1.6-1.3-1.6.6-.2 1.9 1.4 1.9 1.4.6-.3-1.2-1.5-.9-2.1 1.1-1.8.4 0 .5-.7.2-1.7-.5-1.4-.4-1.5.5-.2.9 1.2 1 .9.7-1.4-.3-1.6-1.3-3.7-2.3-4.5-1.6-1.5-1.6-1.5-.2.4 1.3 1.9 1.3 1.9-.4.5-2.3-1.8-5.7-2.3-5.7-.9 0 .5.4.8.8.5.4-.2.8.4.8 1.5 0 1.8-.2 1.8-1.2.5-.6-.9-1.4-1.3-1.7-1-.3.4.2 1.4 1.1 2.3 1.1 1 1.2 1.2.2.6-1.2-.8-1.3-.7-.5.5.6.9.2.7-.7-.3-1-1.1-1.8-1.5-1.8-1s.5 1.4 1.1 2c.8.8.7 1.3-.2 1.8-.8.6-1 .4-.4-.6.7-1.1.5-1.1-1 .1-1.7 1.3-1.8 1.3-1 0 .4-.8.5-1.2.1-.8-.4.3-.7.8-.5 1 .1.1-.3 1.4-1 2.7-1 1.9-1 2.2 0 1.6.8-.5 1-.4.5.4-.5.7-.2 1 .6.9.7-.2 1.2.3 1 .9-.1.7.4 1.3 1 1.3.7 0 .5.5-.4 1.1-1 .5-1.8 1.5-1.8 2.2 0 .7.4.6 1-.3.8-1.3 1.1-1.3 2.2-.1s1 1.2-.2.6c-1.3-.8-1.3-.6-.1.8 1.3 1.6 3.6 1.4 2.6-.3-.3-.5-.1-1.1.4-1.4.5-.3 1.1.1 1.5.9.3.8-.2 1.8-1.1 2.3-1.1.6-1.2 1.1-.4 1.6.6.4 1.1.2 1.1-.4 0-.6.5-.8 1.1-.4.8.4.7.9-.2 1.6-1.1.8-1.1.9.1.5.9-.3 2.4.1 3.5.9 1.4 1 1.5 1.4.4 1.4-1.2 0-1.2.2.1 1 1.1.7.6.8-1.5.5-1.7-.2-3.1-.4-3.2-.6-.2-.1-.7-.2-1.3-.3-.5 0-.9-.3-.7-.7.1-.3-1.9-2.9-4.5-5.8-2.8-3.3-4.5-6.1-4.3-7.2.2-1.1-.2-1.9-.8-1.9-.7-.1-.1-.7 1.2-1.4 1.5-.8 2-1.6 1.2-2-.6-.4-1.1-.2-1.1.4 0 .7-.5 1-1.2.8-1.4-.5-1.9-3.6-.6-4.4.5-.3.2-1.5-.9-2.7-1-1.2-1.4-1.9-.9-1.5.5.4 1.4.1 2.1-.8 1-1.4 1.2-1.4 2.6.2 1.2 1.6 1.2 1.7-.3 1.1-1-.3-2-.1-2.4.6-.4.7-.4.9.1.5.4-.4 1.4-.3 2.2.3.9.9 1.3.8 1.3 0 0-.6.3-1 .8-.9 1.1.4 5.3-2.8 4.6-3.5-.4-.3-1.5.4-2.6 1.6-1.4 1.6-1.3 1.3.3-1.2 1.3-1.9 1.7-3.1.9-2.6-.9.5-1.1.4-.6-.4.4-.6 1.2-.9 1.7-.6.5.4.9.1.9-.5 0-.7-.7-.9-1.7-.5-1.4.5-1.5.3-.6-.6 1.4-1.4 3.6-.2 2.9 1.8-.4.9-.2 1.2.7.7.7-.5.5 0-.3 1.1-.9 1.1-1 1.6-.2 1.1.7-.4 1.2-.2 1.2.6 0 .9.3.9 1-.2.9-1.3 1-1.3 1 0s.1 1.3 1 0c.5-.8 1-1 1-.4s.7 1.1 1.5 1.1 1.1-.5.8-1c-.3-.6-.1-.7.4-.4.6.4 1.6 0 2.3-.8.7-.8.8-1.5.3-1.5-.6 0-.9-1.2-.8-2.8.1-2.1.6-2.6 2.1-2.4 1.6.3 1.5.1-.6-1.7-1.4-1.1-2-2-1.5-2.1.6 0 1.6.5 2.2 1.1.8.8 1.3.7 1.8-.2.6-.8.4-1-.6-.4-1.1.7-1.1.5.1-1 1.3-1.7 1.3-1.8 0-1.1-.8.4-.7.1.3-.7 1.4-1.1 1.5-1.6.5-2.1-.7-.3-.1-.3 1.5-.1 1.8.2 2.5 0 2.1-.7-.5-.7-.2-.8.6-.3s.4-.6-.9-2.3c-1.2-1.8-2.5-3.2-2.8-3.2-.3 0 .1.8.8 1.7 1.3 1.7 1.3 1.7-.7 0-1.1-.9-2.5-1.4-3-1-.5.5 0-.3 1.1-1.7 1.3-1.6 1.5-2.1.5-1.5-1 .6-.9.4.2-.6.9-.9 1.4-1.9 1.1-2.3-.3-.3-1.1.1-1.7 1-1 1.3-1.2 1.3-1.2-.5 0-1.1.4-1.7.8-1.5.4.3.8 0 .8-.5 0-.6.5-1.1 1.1-1.1.5 0 .8.4.5.9-.3.5.2 1.5 1.2 2.2 1.6 1.3 1.6 1.3.2-.6-1.4-1.9-1.4-1.9.5-.5s1.9 1.4.5-.4c-.8-1.1-1-1.7-.4-1.3.6.3 1.1 0 1.1-.8 0-1.2-.3-1.2-1.6-.2-1.2 1-1.4.9-.8-.5.3-1 .1-2-.5-2.4-.7-.5-.8-.2-.3.6.6.9.4 1.1-.5.5-.8-.5-1.1-.4-.6.3.3.6-.3 1.6-1.4 2.2-1.1.6-2 .8-2 .4 0-.3-.6-.2-1.2.3-.7.6-2.1.9-3.1.8-.9-.2-1.5.1-1.1.6.3.5.2 1.4-.2 2.1-1.2 1.8-1.4 5.9-.3 5.3.5-.4.9-1.4.9-2.3 0-1.5.2-1.5 1-.2.8 1.2 1 1.2 1 .1 0-.8.3-1.1.7-.7.5.4-.1 1.5-1.2 2.3-2 1.6-2 1.6 0 .9l2-.6-2 1.6c-2 1.6-2 1.7 0 1 1.1-.4 1.6-.4 1.2 0-.4.4-.1 1.4.6 2.3 1 1.4 1 1.4-.5.3-1.8-1.5-3.9-.8-3.7 1.1 0 .9.2.9.6-.1.2-.6.8-1.2 1.3-1.2 1.1 0 .7 4.3-.5 5.3-.6.5-.1.6 1 .3l2-.6-2 1.6-2 1.7 2-.7c1.4-.5 1.7-.4.9.4-.6.6-2.1 1.2-3.4 1.5-1.2.2-2 .2-1.6-.2.3-.3.1-1.2-.5-1.9-.7-.8-.7-1.4.1-1.9.8-.5.5-1.2-.7-2.2-1-.8-1.2-1.2-.6-.8.9.4 1.1 0 .7-1.2-.4-1.3-.3-1.5.4-.5.8 1.1 1 1.1 1.5-.1.3-.8 0-2-.6-2.7-.9-1-.9-1.1.3-.6.8.4.4-.2-1-1.4s-1.9-1.9-1.3-1.5c.9.4 1.1.1.7-1-.6-1.4-.8-1.4-2 .2-1.2 1.5-1.3 1.5-.8.2.3-1 0-2-.7-2.5-.8-.4-1-.3-.5.5 1 1.6-2.2 6.4-3.7 5.5-.7-.4-.3.2.7 1.4 1.1 1.2 1.6 2.5 1.3 2.9-.4.3-.2 1.2.4 1.9.7.8.7 1.4-.1 1.9-.5.3-1-.1-1-.9 0-.9-.5-1.6-1-1.6-1.2 0-.9 2.2.5 3.2.6.5.4.8-.5.8-1.2 0-1.2.2-.2.9 1.1.7 1 .9-.3 1.4-.9.4-1.4.3-1-.2.4-.8-.3-.8-3.4-.2-.2.1.2.8.9 1.6.9 1 .9 1.5.1 1.5-.6 0-1.1.5-1.1 1.1 0 .5.4.8.9.4.5-.3 1.3 0 1.7.6.5.8.3.9-.6.4-.9-.5-1.1-.4-.6.4.5.7.2 1-.6.9-.7-.2-1.2.3-1 .9.1.7-.3 1.3-.8 1.3-.6 0-.8-1.1-.4-2.8.3-1.5.7-4.1.7-5.8 0-2.1.5-3 1.3-2.7 1.6.6 2.8-1.4 1.4-2.2-.8-.5-.7-1.1.1-2.1.6-.8.8-1.4.5-1.4-.4 0-.4-.6.1-1.3.4-.6.8-1.8.9-2.4.3-1.6 4.4-6.8 5.4-6.8.5 0 1.8-1.2 2.9-2.7 1.2-1.4 2.9-2.5 3.8-2.4 1 .2 2.5-.7 3.5-1.8.9-1.2 1.7-1.7 1.8-1.2 0 .5.7.3 1.5-.4s1.5-.9 1.5-.5.8.1 1.8-.6c.9-.7 1.4-.9 1-.5-.4.5 0 1.5 1 2.2.9.7 1.8 2.2 1.8 3.3.3 4.3.3 4.4 1.9 3.1.8-.7 1.5-.9 1.5-.5s.6.2 1.3-.4c1.1-.8 2-.6 3.7.9 1.3 1.1 2.7 2 3.1 2 1.1 0 2.3-2.1 2.6-4.5.5-2.6 2.2-4.3 2-1.9-.1 1.2.4 1.8 1.3 1.6 1.2-.3 1.3-.1.3.9-1.8 1.8-1.6 3.2.3 2.5 1.3-.5 1.4-.3.6.7-.6.7-.8 1.8-.4 2.4.5.9 1.7.5 3.8-1.2 3-2.3 3.6-4.7 2-7.3-.5-.8-.3-1.1.5-1 .7.2 1.4-.4 1.5-1.2.2-2.5.4-3 1-3 .3 0 .3.4 0 .8zm5 8.6c-.1 1.2.4 3 1.1 4.2 1.1 1.8 1.1 2.3-.2 3.4-1.4 1.1-2 1-3.8-.9-1.7-1.7-1.8-2.1-.4-1.5 2.3.9 2.2-1.3-.3-2.8-1.7-1.1-1.8-1.4-.5-2.8 2.1-2.3 4.2-2.1 4.1.4zm11.9-.6c0 1.2 1 1.3 3.2.5.7-.3 1-1 .7-1.5-.4-.6.8 0 2.5 1.3 2.8 2.1 3 2.5 1.6 3.5-1.1.8-1.3 1.4-.5 1.9s.6 1.3-.6 2.6c-.9 1-1.3 1.9-.9 1.9s.1.8-.8 1.8c-1 1-1.4 2.1-1.1 2.4.3.4-.4.9-1.6 1.3-1.8.6-1.9.9-.8 2.3 1 1.2 1 1.4.1.8-.8-.4-1.3-.2-1.3.5s-1 .3-2.3-.9c-1.3-1.2-2.7-1.9-3.2-1.5-.4.5-.5.3-.1-.4.3-.6.2-1.4-.4-1.8-.5-.3-.8-1.6-.6-2.8.2-1.2-.2-2.9-.8-3.7-.9-1.3-.9-1.3.6-.2 2.6 2 4.1.5 2.3-2.2-1.4-2-1.4-2.5-.1-3.5.8-.7 1.2-1.9 1-2.6-.4-.9.1-1.3 1.3-1.1 1 .2 1.8.8 1.8 1.4zm-51.5 1.4c0 .5-.7.8-1.4.5-1-.4-1.3-.1-.9.8.3.8.9 1.2 1.4.9 1.3-.7.7 1.9-.6 2.8-.6.5-.5.8.3.9 2.4.3 2.7.4 5.2 2.2 1.3.9 2 1.8 1.5 1.8-.6.1-1.7.2-2.5.3-.8 0-1.6.7-1.6 1.3-.1.7-.3 1.6-.4 2-.1.5-.2 1.1-.2 1.4.2 1.4-4.2.1-4.4-1.4-.1-1 .3-1.4 1.2-1 1.5.5 1.9-.9.7-2.1-.5-.4-.8-2.4-.8-4.4 0-3.2-.3-3.7-2.2-3.6-1.8.1-2-.1-1-1.7.6-1 1.4-1.6 1.8-1.3.4.2 1 0 1.4-.6.7-1.2 2.5-.4 2.5 1.2zm18 4.2c0-.4.6-.1 1.4.5 1.1 1 1.7.8 2.5-.6.6-1 1.1-1.6 1.1-1.3.7 3 .7 3.9.2 3.9-1.8-.3-3.3.2-2.8.9.2.4-.4.8-1.4.8-1 0-1.7-.3-1.4-.7.2-.4-.3-.9-1-1.2-.8-.3-2-1.6-2.7-2.9-1.2-2.2-1.2-2.2 1.5-.5 1.4 1 2.6 1.5 2.6 1.1zm-27.6 4c1.5 2.4 1.5 2.4-1.7 2-2.3-.2-2.8-.1-1.7.6.8.5 1.6 1.4 1.6 2 .1.5.3 1.3.4 1.7.2.5.4 1.2.5 1.8.2.5.4 1.3.5 1.7.1.5.3 1.3.4 2 0 .6.9 1.2 1.8 1.4 2.2.3 6-2.5 5.2-3.8-.4-.7-.2-.8.5-.4.7.5.9 1.2.3 1.9-.5.7-.8 2.6-.6 4.3.2 2.8-.1 3.1-2.4 3-1.6 0-3.8-1.2-5.4-3-2.2-2.5-2.9-2.8-4.1-1.8-.8.7-1.4 2.1-1.2 3 .1.9-.2 2.5-.7 3.5-.8 1.5-1.2 1.6-2.4.6-1-.8-1.2-1.5-.5-2.2.7-.7.7-1.5 0-2.4-.7-.7-.8-1.3-.4-1.3s.1-.8-.6-1.8c-1.2-1.5-1.2-1.6.2-.5 1.3 1 1.9 1 3.5-.2 1-.8 1.5-1.5 1-1.5s-.1-.9.8-1.9c1.2-1.3 1.4-2.1.6-2.6-.5-.3-.8-1.1-.4-1.6.3-.5.1-1.6-.6-2.4-.8-1-.6-1.7 1.2-2.9 2.8-2 2.3-2.1 4.2.8zm3.4 27.8c-1.1 1.6-2.4 2.8-3.1 2.8-.6 0-.2.6.8 1.4 2 1.5 2.9 4.6 1.3 4.6-.6 0-.7-.8-.3-1.8.4-1.2.3-1.4-.5-.6-1.4 1.4-.3 4.3 1.7 4 .9-.2 2.1-1 2.8-2 1.1-1.5 1.3-1.5 1.9-.1.5 1.4.8 1.4 3.6 0 1.6-.8 3.1-1.3 3.1-1 .1.3.2.8.3 1.2.1.5.8 1.9 1.6 3.3s1.4 3.4 1.5 4.5c0 2.9 4 2.7 4-.2 0-1.2.4-2.5.9-3 .5-.4.6-.3.2.4-.3.6-.2 1.4.3 1.7.8.5.8 2.7.1 4.6-.1.3-.2.9-.1 1.4.1.4-.5 1.9-1.3 3.1-1.3 2-1.4 2.5 0 3.5.8.7 1.3 1.9 1.2 2.6-.2.7.2 1.3.7 1.3.6.1 1-.3 1-.8 0-2 1.4-2.2 2.6-.3 1.3 2 1.4 2 3.6-1 1.8-2.5 2-3.4 1.1-4.6-1-1.1-.8-1.6.5-2.4 1-.5 1.4-1.4 1.1-2-.4-.7-.2-.8.5-.4.6.4.9 1.1.6 1.6-.5.8 1.9 2.7 3.8 2.9.4.1.7.4.6.7 0 .4.4 1 1.1 1.4.8.5.6 1.1-.5 2-1.3 1.1-1.5 1-1-.6.4-1.2.1-1.1-.8.5-.9 1.5-1.7 2-2.1 1.2-.4-.6-.2-1.1.3-1.1.6 0 1.1-.5 1.1-1.1 0-.8-.6-.7-1.7.2-1.4 1.2-1.6 1.2-1.1-.1.3-.8 1.2-1.4 2.1-1.4.9.1 1.4-.2 1.2-.6-.3-.5-1.3-.8-2.3-.7-1.9.1-2.7 3.3-1.1 4.3.6.4.3 1.4-.8 2.7l-1.8 2.2 2.5-2 2.5-2-1.9 2.3c-1.1 1.2-2.6 2-3.3 1.8-.7-.3-1.5-.2-1.7.3-1.2 1.8 3.1.6 5.5-1.6 2.7-2.5 7.5-4.1 6.3-2.1-.5.7-.2.8.6.3.9-.6 1.1-.4.5.4-.6 1-.3 1.1 1.6.1 2.1-1.2 2.1-1.4.6-2.5-.9-.6-1.4-1.5-1-1.8.3-.4 1.2-.2 2 .4 1.2 1.1 1.6.8 1.1-.8-.4-1.1-2.7-1.2-3.4-.2-.3.5-1 .7-1.5.4-2-1.3-.7-2.1 2.9-2.1 2.8 0 3.9.5 3.9 1.6 0 .8-.5 1.8-1 2.2-.7.4-.6 1.2.4 2.4.8.9 1.3 2 1.2 2.3-.4.8 1.9.9 3.2.2 1.4-.8 6.8-1.1 6.1-.4-.3.4.1 1.5 1.1 2.5.9 1 1.3 1.8.8 1.8-.4 0 .3.8 1.5 1.8l2.2 1.8-2.6 1.8c-2.1 1.3-2.5 2.1-1.7 3 .8 1 .7 1.7-.3 2.5-.8.7-1.2 1.9-.9 2.7.4 1.2.8 1.2 2 .2 1.6-1.3 7.5-1.9 6.7-.6-.3.5-1 .6-1.5.3-.5-.4-.9-.1-.9.4 0 .6.4 1.1 1 1.1.5 0 .9.3.9.7-.3 2.1.2 3.3 1.3 2.7.6-.4.8-.3.4.4-.3.6-.2 1.3.4 1.7.6.4.8 1.1.5 1.6-.4.5-.2.9.3.9.4 0 .8 1.3.8 3 0 1.6-.2 2.8-.4 2.5-.9-.9-3.2 1.7-2.5 2.9.5.7.2.7-.8-.1-.9-.8-2-.9-2.9-.3-1.3.8-1.3 1.2.3 2.7 1 1 2.5 1.8 3.5 1.8.9 0 1.7.7 1.8 1.5 0 .8.2 1.8.4 2.2.7 2.1.5 3.5-.8 5-.8 1-1.1 1.8-.7 1.8.5 0-.2 1.1-1.5 2.5-1.7 1.8-2.7 2.2-3.5 1.5-1.7-1.4-2.8 1.3-1.2 2.9 1 1 .8 1.3-.9 1-.3-.1-1.9 1.2-3.5 2.7-1.6 1.5-2.9 2.3-2.9 1.7 0-.6.6-1.4 1.3-1.6.7-.4.8-.6.1-.6-.7-.1-1.9 1.1-2.9 2.5-.9 1.4-1.9 2.3-2.2 2-.4-.3-1.2-.1-2 .6-1 .8-1.7.8-2.5 0-.6-.6-1.9-.7-3.3-.2-1.2.4-2.8.4-3.5 0-.8-.5-1.8-.6-2.2-.4-.9.6-1.1-1-.2-1.9.4-.4 1.2-.3 1.8 0 .6.4 2.5.8 4.3.8 2.7.1 3-.1 2.2-1.6-.6-1.1-.5-2 .1-2.4 1-.6 1.3.3 1.3 3.7 0 2.4.9 2.3 2.6-.3 1-1.8 1.5-1.9 2.2-.8.5.8.9.9.9.3 0-.6-.9-1.9-2-2.9-1.4-1.3-1.7-2.2-1-3.1.8-.8.7-1.3-.2-1.6-1-.4-1-.8.1-2.1 1.8-2.2 2.2-2.1 4.5 1 1.3 1.7 1.4 2.4.5 1.9-.8-.4-.6-.1.4.7 1.4 1.1 1.5 1.6.5 2-.7.3-.3.4.9.4 1.5-.1 1.9-.5 1.3-1.1-.6-.6-1-1.5-1-2 0-.6.5-.5 1.2.2s1.7 1.2 2.2 1.2c.6 0 .4-.5-.4-1-1-.6-1.1-1-.2-1 .6 0 1.2-.5 1.2-1.1 0-.8-.6-.7-1.7.2-1 .8-1.4.9-1 .2.4-.6-.1-1.8-1.3-2.6-1.1-.7-1.7-1.7-1.3-2 .3-.4 1.2.1 2 1.1.8.9 1.2 1.1.8.5-.4-.9 0-1.1 1.2-.7 1.5.5 1.6.4.3-.6s-1.3-1.1 0-.7c.8.2 1.4 1.2 1.2 2.2-.2 1.1.1 1.4.8 1 .6-.4.9-1.3.7-1.9-.3-.7.1-1.3.9-1.3s1.4.3 1.4.7c0 .4.7.7 1.6.7 1.5 0 1.5-.1 0-1.2-1.7-1.3-1.2-2.6.7-2.1.7.2.8.1.3-.2-.4-.2-.2-.9.5-1.4 1.1-.8 1-.9-.3-.5-.9.3-2.2-.2-3-1.1-1.2-1.6-1.1-1.6.6-.2 1.8 1.4 1.9 1.4.5-.7-1-1.6-1.6-1.9-2.2-1-.6.8-.7.7-.4-.3.3-.9-.1-2.4-.9-3.5-1.1-1.4-1.1-2.2-.2-3.4.7-.9.8-1.3.4-.9-.5.4-1.5.3-2.2-.3-.8-.7-1.4-.6-2 .2-.5.8-.3 1 .7.4.8-.5 1.1-.5.7-.1-.3.4-.9.7-1.3.6-.3 0-1.4.7-2.3 1.8-.9 1-1.2 1.1-.7.2.8-1.2.7-1.3-.5-.5-.9.5-.4-.1 1-1.4 1.4-1.3 1.8-2 1-1.6-1.2.6-1.3.5-.3-.5.9-.9.9-1.9.2-3.3-.9-1.5-.8-1.8.3-1.2.7.3.5 0-.5-.8-1-.9-1.4-1.8-.8-2.1.5-.3 1.2 0 1.5.6.3.7.3-.3 0-2.2-.4-3.1-.2-3.3.9-1.8 1.4 1.7 2.7 1.4 2.7-.5 0-.6-.3-.7-.7-.4-1 1-3.2-1.3-2.7-2.7.3-.7-.2-1.9-1.1-2.6-.8-.7-1.5-1.7-1.5-2.3 0-.6.7-.2 1.5.9 1.3 1.8 1.4 1.8.8-.4-.4-1.6-1-2.1-2.2-1.7-1.8.7-1.1 0 3.3-3.3 1.5-1.2 3.3-1.9 3.9-1.5.6.3.7.1.3-.5-.4-.6-1.4-.8-2.3-.5-1 .4-1.4.2-1-.4.4-.6 0-1.6-.8-2.3-.8-.7-1.3-1.5-1-1.9.6-1-2.7-.7-4.4.3-.8.5-1.6.4-2.1-.4s-.9-.7-1.4.5c-.3.9-1.1 1.3-1.7 1-.6-.4-.8-1.3-.6-1.9.3-.7-.1-1.3-.8-1.3-.7 0-1.1.6-.8 1.3.2.6-.1 1.5-.6 1.9-.6.3-.9 1.1-.5 1.6.3.5 1 .7 1.5.4.5-.4.9-.1.9.4 0 2.1.2 2.6 1.2 3.8.7.9.7 1.3-.1 1.3-.7 0-.9.5-.6 1.1.5.6 1.3.3 2.2-1 .8-1.2 1.9-1.9 2.4-1.5.6.3.3 1.2-.8 2-1.5 1.1-1.5 1.3-.2.8 2.5-.8 3.5 1.7 1.4 3.3-1.1.7-1.3 1.3-.7 1.3.8 0 1.1 1.1.7 3.2-.3 2.1-.2 2.8.3 2 .7-1.1 1-1 1.5.3.5 1 .3 1.4-.5.9-.7-.5-.8-.3-.3.6.6.9.4 1.1-.6.5-.7-.5-.4.4.9 1.9 1.2 1.6 2.2 3.3 2.2 3.8 0 .6-.8 0-1.8-1.3-1.3-1.5-2.1-1.9-2.6-1-.5.7-.2 1 .6.9.7-.2 1.2.3 1.1.9-.2.7.1 1.3.5 1.3s.8.9.9 2.1c.2 2.1.2 2.1-2 .3-1.9-1.6-2-1.6-.8-.2.9 1.2 1 1.8.2 1.8-.6 0-1.1-.5-1.1-1.2 0-.6-.3-.8-.7-.4-.5.4.1 1.4 1.1 2.2 1.9 1.3 1.1 2-1.7 1.5-.5-.1-.6.3-.2.9.3.6 1.1.8 1.6.4.6-.3 1.9.2 3 1.2 2.1 1.9 2.7 4.3.6 2.5-.8-.6-1.7-.8-2-.4-.4.3-1.5-.1-2.5-1-1.5-1.4-1.9-1.4-1.9-.3 0 .8.3 1.5.6 1.4 2-.2 1.9.6-.3 3.5-1.4 1.9-2.3 3.7-1.8 4.2.4.5.1.5-.6.1-1.1-.7-1.1-.4-.1 1.2.7 1.2 1.7 1.8 2.2 1.5.5-.3.4-.9-.3-1.3-.8-.5-.8-1-.2-1.4.5-.3 1.2.1 1.6.9.3.8.1 1.7-.5 2.1-.5.3-.7 1.4-.4 2.5.4 1.1.2 1.9-.5 1.9-.6 0-.9-.4-.6-.8.2-.4 0-1.4-.6-2.2-.8-1.2-.8-1.1-.3.5.3 1.1.2 1.6-.2 1.1-.4-.4-.8-1.7-.8-2.9 0-1.1-.7-2.2-1.5-2.4-1.2-.4-1.3-.3-.1.5.7.5 1 1.5.6 2.1-.4.7-.1 1.8.5 2.6 1.2 1.5 1.1 1.6-1.1 1.9-.6 0-1.6.8-2.2 1.6-.7.8-1.9 1.6-2.7 1.8-1.1.2-1-.1.3-1.2 1.1-.9 1.4-1.7.8-2.1-.7-.4-.6-1.4.4-2.9 1.3-1.9 1.3-2.3.1-2.3-.8 0-1.2.7-.9 1.6.4 1 0 .9-1-.4-.8-1.1-1.3-2.4-.9-3 .3-.5-.4-.2-1.5.8-1.1.9-2.3 1.4-2.7 1-.4-.5-1.3-.8-1.8-.8-.6 0-1.3-.6-1.6-1.3-.2-.7.2-1 1.1-.6.8.3 1.8.1 2.1-.5.4-.5 1.8-.8 3.2-.5 1.9.3 2.4.1 1.9-.8-.4-.7.2-.3 1.2.8 1.7 1.9 2.2 2 3.8.8 1.4-1 1.5-1.4.4-1.4s-1.2-.2 0-.9c.9-.6 1-1.1.2-1.5-1.5-1-.4-2.6 1.3-2 1.7.6 3.1-1.2 1.6-2.1-.7-.4-.3-1.7 1-3.4 1-1.6 1.7-3.1 1.3-3.5-.3-.3.2-1.4 1.1-2.5 1.1-1.2 1.4-2.1.7-2.6-.8-.4-.8-1.2-.1-2.5.7-1.3.7-2.1 0-2.5-.6-.4-.8-1.1-.5-1.6.4-.5.3-1.5-.2-2.2-1.1-1.8-1.2-3.6-.2-4.3 1.5-.9 1-2.2-.8-1.9-2.3.3-5.3-2.3-4.6-4.1.3-.8 0-1.5-.6-1.5-1.3-.2-2.9-.6-3.6-.9-.3-.1-1-.3-1.5-.4-.6 0-1.5-.8-2-1.6s-1-1.1-1-.7c0 .5-1.2-.1-2.6-1.2-1.5-1.1-3-1.9-3.4-1.6-.4.3-1.3-.2-2-1s-1.6-1.2-2.1-.9c-.5.3-.9.1-.9-.4s-.6-.9-1.2-1c-1.5-.1-5.2-1-5.5-1.2-.2-.2-.9-.3-1.5-.4-.7-.1-1.2-.8-1-1.5.2-.8-.3-1.1-1.2-.8-.9.4-1.8.2-2.1-.3-.3-.5-1.1-.7-1.8-.5-.7.3-2.1-.8-3.2-2.4-1.2-1.8-2.2-2.6-2.6-1.9-.4.6-1.2.7-2 .3-.9-.6-.8-1 .6-1.5 1.3-.5 2-1.7 2-3.8.1-2.2-.2-2.8-1.1-2.2-1.3 1.2-4.1-1.7-3.9-4 .1-2.1-1.7-3.1-3.2-1.8-.7.6-1.3.9-1.4.7 0-.2-.2-1.2-.4-2.2-.2-1-1.1-2.7-2.1-3.8-1.3-1.5-1.5-2.2-.6-3.1.7-.7 1.2-.8 1.2-.4 0 .5.7.3 1.5-.4s1.5-.9 1.5-.5.7.2 1.5-.5 1.2-1.7.9-2.4c-.3-.6.1-.3.9.7 1.3 1.6 1.5 1.6 2.1.2.4-1.1.2-1.4-.6-.9-.7.5-.9.2-.5-.9s.2-1.4-.9-1c-.7.3-1.4.1-1.4-.4 0-2 1.3-2.2 3.5-.5l2.3 1.7-2 2.7zm41.7 30.7c-.3.2-1.1-.1-1.8-.7-.8-.7-1.8-.8-2.2-.4-.5.4-.5.1-.1-.5.5-1 1.1-1 2.6-.1 1.1.7 1.7 1.4 1.5 1.7zm14.1 9.4c.1 1-1.2 2.6-2.9 3.9-1.8 1.2-2.9 1.8-2.5 1.3.4-.4.3-1.4-.3-2.2-.9-1-1.5-1-2.5-.2-1.1.9-1.9.7-1.2-.4.6-.8-2.5-4.6-3.4-4.1-.7.4-.8.2-.4-.5.6-.9 1.1-.9 2.1-.1.9.7 1.5.8 1.9.1.4-.6 1.3-.8 2-.5.8.3 1.7 0 2.1-.6.9-1.5 4.7 1 5.1 3.3zm-2 14.3c-.2 1.9-.9 4-1.6 4.7-1.2 1-1.2.9-.2-.4.9-1.2.9-2-.1-3.5-1.1-1.7-1.2-2.7-.8-5.8 0-.5.7-.3 1.5.3.8.7 1.3 2.6 1.2 4.7zm4.1 15c-.3.4-.1 1.6.5 2.8.7 1.1 1.1 2.5 1 3-.2.5.7 1.9 1.8 3.1 2.6 2.7 1.4 3.9-4 4-5.3.1-6.8 1.4-4 3.5 1.3 1 1.8 2 1.2 2.3-.5.4-1.7-.5-2.7-1.9-1-1.6-2.2-2.3-3.1-2-.9.3-1.2.1-.9-.4.6-.9-.8-1.4-2.8-1.1-.4.1 0-1 .9-2.4 2.1-3.3 5-4.9 6-3.4.4.7.9.8 1.7 0 .7-.7.7-1.4-.2-2.4-.9-1.1-.8-1.7.4-2.7.8-.7 1.5-.9 1.5-.4s.5.1 1.1-.9c.5-.9 1.3-1.7 1.6-1.7.4 0 .3.3 0 .6zm-61.2 3.6c.5-.4.6-.3.3.3-.5.9 2.2 4.4 2.9 3.7 1-.9 2.2.1 2 1.8-.1 1.1-.5 2-1 2s-.6-.8-.2-1.8c.5-1.3.3-1.4-.6-.5-.6.6-.8 1.6-.5 2.1.9 1.5 6.6.8 7.7-.9.8-1.3 1.1-.6.8 1.7-.2 1.4 2.6 2.2 3.9 1.2.9-.8 1.6-.8 2.4 0 .6.6 1.8.8 2.7.3 1.3-.6 4.6-.7 6.6-.2.3 0 .7 0 1-.2.2-.1 1.2.8 2 2.1.9 1.2 2 2 2.5 1.7.5-.3 1.2-.1 1.5.5.5.8 1.1.7 2.1-.1 1.3-1 1.8-.6 1.5 1.3 0 .5.3.8.7.8 1.1 0 1.2 3.9.1 4.5-.5.4-.7 1.1-.4 1.6.4.5-.1 1.2-1 1.5-1.2.5-1.3 1-.4 2 .6.8 1.5 1.2 1.9.9.4-.3 1 .1 1.3.8.5 1.4-2.6 1.7-3.9.4-.4-.4-1.3-.2-2.1.4-.9.9-1.7.8-2.7 0-1.1-1-1.7-.8-2.5.6-.6 1-1.1 1.3-1.1.6 0-.6-1.1-1-2.4-.9-1.7.2-2.3-.1-1.9-1 .6-1.7-.1-1.7-3.5-.1-2.4 1.2-4.3 1.4-5.7.7-.3-.1-.9-.3-1.4-.4-1.9-.2-2.1-1.4-.4-2.7.9-.8 1.4-.9 1-.2-.8 1.3 1.1 1.2 3.3-.2 2.3-1.5 3.9-1.4 3.3.1-.3.7-.8 1.3-1.1 1.2-2.1-.2-3.2.3-2.6 1.3.4.8.9.7 1.5-.2.5-.8.9-1 .9-.6s.9.3 2-.3c2.3-1.2 1.6-4.4-.9-3.6-1.1.4-1 .2.3-.9 2.4-1.8 3.2-1.9 3.4-.3.3 3.4 1 5.3 1.8 4.8.5-.3.8-.9.6-1.3-.1-.5.1-.6.6-.3 1.1.6.9-2.5-.3-4.3-.6-1-.4-1.2.4-.6 1 .5.9.2 0-1.3-.7-1.2-1.7-1.8-2.2-1.5-.5.3-.4.9.3 1.3.8.5.8 1 .2 1.4-1.4.8-2.3-1.9-1-3.2.6-.6.7-1.6.1-2.7-.9-1.5-1.1-1.5-2.3 0-1.1 1.3-1 1.5.4.9 1.7-.7 2.3 1.1.6 2.1-.6.4-.8 1.1-.5 1.6.3.5-.1.6-1 .3-1.4-.6-1.4-.8.2-2.1 1.7-1.3 1.7-1.3-.2-.4-1.7.8-2.1.6-2.1-.9 0-1 .4-1.7.7-1.4.4.2 1.1-.1 1.5-.7.5-.8.3-.9-.6-.4-.9.6-1.1.4-.5-.4.6-1 .3-1.1-1.3-.2-3.2 1.7-3.7 3.3-1.6 5 2.6 2.3 2.7 3.7.1 3.8-1.2 0-1.6-.1-.9-.4.6-.3 1.2-.9 1.2-1.5 0-.7-.5-.7-1.3.1-1 .8-1.4.7-1.4-.4 0-.8.5-1.1 1.1-.8.6.4.5-.1-.3-1-1.1-1.4-1.1-2 0-3.5.7-.9.9-1.4.5-1-.5.4-1.6.2-2.4-.5-1.3-1-1.5-.9-.8.3.4.8.1.7-.7-.3-1.4-1.7-1.5-1.7-2.2 0-1.1 2.5-1.2 4.6-.2 6 .5.7.5 1.8.1 2.4-.5.8-.3.9.7.4 1.1-.7 1.1-.5-.1 1.1-2.2 2.9-2.4 3-1.8 1.3.5-1.2-.1-1.5-2.6-1.5-2.1.1-3.1.6-3.1 1.6 0 .8.7 1.5 1.5 1.5s2 .4 2.7.8c.6.4 1.4.3 1.8-.3.3-.5 1-1 1.6-1 .5 0 .4.9-.3 1.9-.7 1.1-1.7 1.7-2.3 1.3-.5-.3-1.7-.7-2.5-.9-.8-.1-2.2-1.1-3.1-2.2-1.6-1.9-1.8-1.9-2.4-.3-.6 1.6-.7 1.6-2-.2-.8-1-1.2-2.3-.9-2.7.3-.5 0-1-.5-1-2.1-.3-2.6-.4-3.8-1.2-.8-.5-1.3-.3-1.3.4 0 .9-.4.9-1.5-.1-.8-.6-1.8-.9-2.3-.6-.5.3-.8-.4-.7-1.5.1-1.1.7-2.4 1.4-2.8.9-.6.8-1-.6-1.5-1.6-.7-1.6-.9.6-2.5 1.6-1.3 2-2 1.2-2.5-.9-.6-.9-1.1 0-2.2 1.3-1.6 4.4-1.9 3.4-.4-.4.6-1.1.7-1.7.4-.7-.4-.8-.2-.4.5.4.6 1.2.9 1.7.6.5-.4.9-.1.9.5 0 .7-.7 1-1.7.6-1.1-.4-.8.2.7 1.4s1.8 1.8.8 1.4c-1-.3-1.8-.1-1.8.4 0 .6.9.9 2 .7 1.2-.2 1.8 0 1.5.6-.4.5-1.2.6-1.8.2-.7-.4-.7 0 .1 1 .8.9 1 2.2.6 2.8-.4.8-.3.9.5.5.6-.4 1-.3.9.2-.2.6.1 1 .6 1s1.3.6 1.7 1.4c.7 1.1.9 1 .9-.1 0-.9.6-.7 1.9.8 1.1 1.2 2.2 1.8 2.5 1.3.3-.6-.1-1.2-.8-1.5-1-.4-1.3-1.5-1-3.1.2-1.4 0-2.8-.6-3.1-.7-.4-.6-1.4.2-2.8 1.5-2.8 1.8-5.8.5-5-.6.4-.7.1-.2-.7.6-.9.4-1.1-.5-.5-.8.5-1.1.4-.6-.3.4-.7-.3-.9-2.1-.6-2.1.3-2.4.2-1.3-.6 1.3-.9 1.3-1 0-1s-1.3-.1 0-1.1c1.3-.9 1.3-1 0-.6-.8.2-1.5.9-1.5 1.4 0 .6-.3 1.5-.7 1.9-.5.4-.8.2-.8-.4 0-.7-.3-1.1-.7-1.1-2 .3-2.2-.3-.7-2.6l1.6-2.5 2.8 2c1.5 1.1 3.1 1.6 3.5 1.2zm-4 5.8c-.3.5 0 1.2.6 1.6.8.4.7.9-.2 1.5-1.2.7-1.2.9 0 .9.8 0 1.1.6.7 1.6-.3.9-.2 1.2.5.9.6-.4.8-1.3.5-2.1-.3-.7-.1-1.6.4-1.9.6-.4 1-1.2 1-1.8 0-.8-.3-.8-.9.2-.5.7-1.1.9-1.4.4-.3-.5-.2-1.5.2-2.2.7-1 1.2-.8 2.4.9 1.4 2 1.4 2.5.1 4.5-.9 1.5-1.1 2.5-.5 2.9 1.9 1.2.8 4.2-1.6 4.2-1.2 0-2-.2-1.8-.4.2-.3 0-1.3-.5-2.3-.7-1.2-.6-2 .1-2.4.7-.5.6-1.2-.3-2.3-1.2-1.5-1.3-2.5-.9-5.5 0-.5.6-.5 1.1-.2.6.4.8 1 .5 1.5zm13.5 1.4c0 .6-.5.4-1-.4-.7-1.1-1-1.1-1-.2 0 .8-.5 1-1.2.6-.9-.6-.9-.9 0-1.2.7-.2.9-.9.5-1.5-.4-.7.1-.6 1 .2.9.7 1.7 1.9 1.7 2.5zm4.2 6.1c.2-.3.4 1.1.3 3-.2 3.8 1.6 6.1 3.7 4.9.7-.4.4.2-.6 1.4-1.6 1.8-2.2 2-3.4.9-.8-.6-1.7-1.1-1.9-1-.1.2-.2 0 0-.5.1-.4.5-.6 1-.5 1.2.5.8-.7-1.1-2.8-1.5-1.6-1.9-3.8-1.3-6.8.1-.2.7.2 1.4.8.8.6 1.6.9 1.9.6zm4.8 1.5c0 .5-.4 1-1 1-.5 0-1-.5-1-1 0-.6.5-1 1-1 .6 0 1 .4 1 1zm32.4 5.9c.3.5-.1 1.4-.9 2.1-1.2 1-1.4.8-1-.8.5-2.6-1.5-3.4-4-1.6-1 .8-1.3 1.4-.7 1.4.7 0 1.2.4 1.2.8 0 1.1-4.7.9-5.7-.2-.4-.5-.3-.6.4-.2.6.3 1.9-.4 2.7-1.6.9-1.2 1.6-1.8 1.6-1.3s.5.4 1.2-.3c1.1-1.1 4.1-.2 5.2 1.7zm-25.1 1.7c-.4 1.2-.8 1.3-1.4.3-.9-1.5-.2-3.2 1.1-2.4.5.3.6 1.3.3 2.1zm-20.3.4c0 .5-.4 1-1 1-.5 0-1-.5-1-1 0-.6.5-1 1-1 .6 0 1 .4 1 1zm2.4.6c.3.8.2 1.2-.4.9-.6-.3-1-1-1-1.6 0-1.4.7-1.1 1.4.7z"/><path d="M178 100c-.6 1.1-1.5 1.8-2 1.5-.5-.3-1.1-.1-1.5.4-.3.6.3.8 1.5.6 1.1-.2 2.4.3 2.9 1.3.5.9 1.3 1.4 1.7 1 .4-.5 1.2-.3 1.9.2.8.7 1.9 0 3.5-2.3 1.3-1.7 1.9-2.9 1.5-2.5-.4.4-1.5.2-2.3-.4-1.9-1.7-4.2-1.9-3.6-.4.3.7-.2 1.3-1.1 1.3-.9 0-1.4-.6-1.1-1.4.8-2-.2-1.5-1.4.7zm6.6 2.5c-.9.7-1.2 1.6-.8 2.1.4.4 0 .3-.9-.4-.9-.6-1.8-1-2.1-.7-.3.3-1.1-.1-1.7-.9-1.1-1.3-.9-1.5.9-1.1 1.2.2 2.3-.2 2.7-1.1.4-1.2.8-1.2 2-.2 1.3 1 1.3 1.3-.1 2.3z"/><path d="M182.5 102c-.3.6.1.7.9.4 1.8-.7 2.1-1.4.7-1.4-.6 0-1.3.4-1.6 1zM189.5 99.1c-.3.4.3.6 1.2.4 1-.1 2.3.2 3 .7.7.5 1.4.5 1.8-.2.7-1.2.8-1.1-2.8-1.4-1.5-.2-3 0-3.2.5zM193.6 107.3c.3 1 .9 1.5 1.2 1.2.3-.3 0-1.1-.7-1.8-1-.9-1.1-.8-.5.6zM165.5 102c-.4.6-1 .8-1.5.5-.5-.3-1.4.5-2 1.7-1 2.1-1 2.2.3.5 1.1-1.4 1.6-1.5 2-.5.4 1.1.6 1.1.6 0 .1-.7.5-1.1.9-.8.5.3.9-.1.9-.9 0-1.8-.3-1.9-1.2-.5zM198.9 102.7c-1.2 1.6-1.2 1.7.2.6.9-.7 2-.9 2.4-.5.5.4.5.1.1-.6-.9-1.6-1.1-1.5-2.7.5zM203.4 102.2c-.3.5-.2.7.3.6.4-.2 1.8.7 3.1 1.9 1.2 1.3 1.8 2.3 1.2 2.3-1.5 0-1.2 1.7.3 2.3.9.3 1.3-.2 1.2-1.6-.1-1.2.2-2.8.8-3.5.7-.9.7-1.6-.1-2.4-.9-.9-1.2-.9-1.2 0 0 .7-.7 1.2-1.6 1.2-.8 0-1.3-.4-1-.8.3-.5-.2-.9-1-.9s-1.7.4-2 .9zm6.1 1.8c-.3.5-1.2 1-1.8 1-.7 0-.6-.4.3-1 1.9-1.2 2.3-1.2 1.5 0zM154.9 108.2c-1.3 1.7-1.8 2.8-1.2 2.5.7-.4 1.7.1 2.3 1 1 1.6 1.1 1.6.6.1-.3-1-.1-2 .4-2.3.7-.4 1.1-4.5.4-4.5-.2 0-1.3 1.4-2.5 3.2zm1.2 1.1c-1 .9-1.1.8-.5-.6.3-1 .9-1.5 1.2-1.2.3.3 0 1.1-.7 1.8zM174.4 109.1c-.2.5-1.1.6-1.9.2-1.8-.6-1.9.5-.2 2.7.6.9.3.6-.9-.6-2.1-2.1-2.1-2.1-3.3-.2-.7 1.1-.8 1.7-.2 1.4.5-.4 2.2 1 3.7 2.9 2.5 3.4 2.8 3.5 4.5 1.9 1.8-1.6 1.7-4-.1-2.9s-1.7-2.1.1-4.1c1.6-1.7 1.7-2.1.4-2.1-.9 0-1.8.4-2.1.8zm1.6.3c0 .2-.6.9-1.4 1.5-1.1.9-1.6.9-2.2 0-.4-.7-.3-.9.4-.5.6.3 1.3.2 1.7-.4.6-1 1.5-1.4 1.5-.6zm.3 5.9c.7-.4.6.1-.2 1.1-.8.9-1.7 1.3-2 .9-.4-.4-1.7-2.1-3.1-3.8l-2.5-2.9 3.3 2.7c1.9 1.5 3.9 2.4 4.5 2zM196.6 109.8c-.2.4-.1 1.4.3 2.1.6 1 1 .9 1.4-.3.6-1.6-.8-3.2-1.7-1.8zM148.9 113.7c-1.3 1.6-1.2 1.7.4.4.9-.7 1.7-1.5 1.7-1.7 0-.8-.8-.3-2.1 1.3zM191.7 113.8c-1.5 1.7-1.5 1.8.8 1.8 1.7 0 2.1-.3 1.5-1.1-.6-.7-.7-1.5-.3-1.8.3-.4.4-.7.1-.7-.3 0-1.2.8-2.1 1.8zM146.9 118.3c-.1.4-.2 1-.3 1.4-.1.5-.5 1.3-.9 2-.4.6-.2 1.5.4 1.9.7.4.9.3.5-.4-.3-.6.2-1.5 1.1-2.1 1.4-.8 1.6-1.2.6-2.2-.7-.7-1.4-1-1.4-.6zM157.4 122.5c.2.7 0 1.7-.5 2.2-.6.6-.5 1.4.5 2.2 1.2 1 1.4.9 1.1-.6-.1-1 .1-2.5.6-3.4.5-1.1.3-1.6-.7-1.6-.8 0-1.3.6-1 1.2zM163 136.5c-.7.8-1.7 1.2-2.2.9-.6-.4-.3.5.6 1.8.9 1.4 1.4 2.8 1.1 3.1-.3.4.1.2.8-.3.6-.6 1.2-2.4 1.3-4 0-3.5 0-3.5-1.6-1.5zm.7 2.7c.2 1.7 0 1.9-.7.8-.5-.8-.6-1.8-.4-2.2.8-1.2 1-1 1.1 1.4zM149.1 140c-1.9 1.6-2.7 1.8-3.8.8-.8-.6-1.3-.7-1.2-.2.1.5 0 1.1-.1 1.4-.1.3-.3 1.3-.5 2.3-.3 1.5-.1 1.6 1.1.6.8-.6 1.4-.8 1.4-.4s.6.2 1.3-.4c.8-.6 1.8-.7 2.2-.3.5.4.5.1.1-.6-.5-.8-.1-2.1 1-3.3 2.2-2.4 1.6-2.4-1.5.1zm-1.6 2.9c-.9.8-3.6 1-3 .2.2-.4 1.1-.8 2-.8.8 0 1.3.3 1 .6zM161.5 146c-.4.6-1.2.7-1.8.3-.7-.4-.7 0 .1 1 .8.9 1.7 1.6 2 1.5 1.9-.2 3.3.3 2.8 1-.3.5.1.9.9.9 1.1 0 .9-.7-.6-2.9-2.3-3.1-2.5-3.2-3.4-1.8zm1.9.8c.3.5-.1.9-.9.9s-1.2-.4-.9-.9c.3-.4.7-.8.9-.8.2 0 .6.4.9.8zM145.4 151.5c.2 1.4 2.5 4.4 2.7 3.4 0-.2.2-1.2.4-2.2.2-1.1.1-1.6-.2-1.3-.4.3-1.2.1-1.9-.5-.9-.7-1.2-.6-1 .6zM174.8 154.5c1.1 1.5 1.9 1.9 2.4 1.2.8-1.4-.5-3-2.7-3.3-1.2-.2-1.2.2.3 2.1zM183.3 157.5c0 .8.4 1.2.9.9.5-.3.6-1 .3-1.5-.9-1.3-1.2-1.1-1.2.6zM151.3 159.6c1.5 1.7 2.5 3.3 2.2 3.7-.3.4-.2.5.2.2.3-.3 1.2 0 2 .6 1 .9 1.3.8 1.3 0 0-.7.5-.9 1.2-.5s.8.3.4-.5c-.4-.6-1.2-.8-1.8-.5-.5.3-2.6-.9-4.6-2.7-3.4-3.2-3.5-3.2-.9-.3zM194.3 163.5c0 .8.3 1.3.5 1 .3-.3 1.1 0 1.8.6.9.7 1.4.6 2-.3.4-.7.3-1-.1-.5-.5.4-1.6 0-2.5-.8-1.5-1.3-1.7-1.3-1.7 0zM181.1 163.7c-.1.6.4 1.5.9 1.8.6.4.7 1.2.4 1.8-.4.7-.3.8.1.4 1.2-1 1.6-3.9.5-3.2-.5.3-1.1-.1-1.3-.7-.4-.9-.6-1-.6-.1zM208.1 170.4c-.6.8-1.4 2.3-1.6 3.4-.3 1.6.1 2 1.7 1.7 1.1-.2 2.6-.9 3.2-1.5.7-.5 1.6-.6 2-.2.4.4 1.2.7 1.7.7s1 .4 1 1c.1.5 1.4 2.6 3 4.6 1.6 2 2.5 3.9 2.1 4.3-.4.4-.2.7.3.6 2.9-.6 3 .3.4 3.1-1.6 1.7-2.9 3.5-2.9 3.9 0 1 5 .7 6.7-.3.6-.4 1.4-.1 1.6.5.4.9.6 1 .6.1.1-.6-.4-1.5-.9-1.8-.7-.4-.7-1.3 0-2.5.9-1.6.5-2.2-2.1-3.5-2.3-1.2-2.8-1.9-2-2.9 1.4-1.6-.5-3.7-2.7-2.9-.9.4-1.3.2-.9-.4.3-.5-.7-2.3-2.3-3.8-1.7-1.6-3-2.5-3-2s-1.1-.1-2.3-1.4c-2.1-1.8-2.6-2-3.6-.7zm3.4 2.7c-.3.4-1.3.5-2.2.2-1.2-.5-1.4-.3-.8.7.5.9.4 1.1-.3.6-.9-.5-.9-1.3-.1-2.7.8-1.6 1.3-1.8 2.5-.9.7.7 1.1 1.6.9 2.1zm10.9 8c-.3.5-1 .7-1.5.3-.5-.3-.7-1-.3-1.5.3-.5 1-.7 1.5-.3.5.3.7 1 .3 1.5zm4.1 5.7c-.6.4-1.1 1.6-1 2.6 0 1.5-.7 2-2.7 2.1-1.5.1-2.5-.2-2.2-.7.3-.4 1-.5 1.6-.2.7.5.9.1.5-.9s0-2 1.1-2.6c2-1.2 4.2-1.5 2.7-.3zM227 196.2c2 1.7 2.3 3.7.9 5.4-.9 1.1-.9 1.4 0 1.4.7 0 1 .4.6.9-.3.5-.1 1.2.4 1.5.5.4 1.2.2 1.5-.3.4-.5.2-1.2-.3-1.6-.6-.3-.8-1.9-.6-3.5.3-2.3-.1-3.3-1.8-4.1-1.9-.8-2-.8-.7.3zM228.9 207.7c0 .5-.3 1.9-.5 3.2-.2 1.4-.2 2.2.1 1.9.8-.8 1.7-5.8 1-5.8-.3 0-.5.3-.6.7zM201.5 107.1c-.4.5.1 1.9 1 2.9s1.4 2.3 1.1 2.9c-.4.5-.2 1.2.3 1.5 2 1.2 2-1.3.1-3.7-2.2-2.8-2.6-4.2-.8-3.1.7.4.8.3.4-.4-.9-1.5-1.3-1.5-2.1-.1zM221.6 108.1c.5.9.2 1-.9.6-.9-.3-1.9-.2-2.2.3-.4.7-1.3.6-2.5 0-2.7-1.5-4.4 1-2.5 3.8 1 1.4 1.2 2.3.5 2.7-.8.5-.7 1.1.1 2.1 1.3 1.6-.2 1.9-1.7.4-.6-.6-1-.3-1.1.9-.2 2.1 4.3 6.8 5.4 5.8.3-.4.1-.7-.6-.7-.6 0 .4-1.4 2.4-3.1 1.9-1.7 3.3-3.5 3-3.9-.3-.4.2-1.3 1-2 1.5-1.3 1-3.5-.6-2.5-.5.4-.9.1-.9-.5s-.5-.8-1.1-.4c-.8.4-.7.9.2 1.5.8.5 1 .9.5.9s-1.8-.8-2.8-1.7c-1.7-1.5-2-1.5-2.8-.3-.6.9-1 1-1 .3 0-2 2-2.6 3.7-1.1 1.1.8 1.4.9 1 .1-.5-.8-.1-1.1 1.4-.8 1.2.3 2.8.1 3.5-.3 1-.6.9-1.1-.7-2-1.6-1-1.9-1-1.3-.1zm.1 5.8c1.7-1.3 1.7-1.3 0 .7-.9 1.1-1.5 2.3-1.2 2.6.3.3-.8 1.7-2.6 3.2-2.4 2.1-3.4 2.4-4.5 1.5-.8-.6-1.4-1.7-1.4-2.3 0-.8.2-.8.8.1.5.8 1.2.8 2.5-.2 1.6-1.1 1.6-1.3.2-1.9-1-.4-1.3-1.1-.8-1.8.4-.7.8-1.6.9-2.1.1-.4.2-1 .3-1.4 0-.3 1 .2 2.1 1.2 1.7 1.5 2.2 1.6 3.7.4z"/><path d="M217.3 114.4c1.2 1.7.8 2.6-1 2-1.5-.5-1.5-.3.1.7 1.8 1.1 1.8 1.2-.5 3.1-2 1.6-2 1.7-.3.9 3.8-1.8 4.6-3.6 2.7-5.7-1-1.1-1.5-1.5-1-1zM164 116c1.3.9 1.3 1 0 1s-1.3.1 0 1c.9.5 1.9.5 2.7-.2 1.6-1.3 1-2.1-2-2.5-1.7-.2-1.9-.1-.7.7zM151.4 116.6c-1.8 1.4-1.8 1.5.4.4 1.2-.6 2.2-1.3 2.2-1.5 0-.8-.5-.6-2.6 1.1zM151.7 120.7c-.4.3-.2 1.3.5 2 .9 1.1.9 1.6-.3 2.3-.8.5-1.4 1.4-1.4 2 0 .6-1.1 2-2.5 3.1-1.9 1.6-2 1.8-.4 1 2.3-1.1 5.1-4.1 3.8-4.1-.4 0 .1-.6 1.1-1.4 1.5-1.1 1.7-1.7.7-2.8-.6-.8-.9-1.8-.5-2.1.3-.4.4-.7.1-.7-.2 0-.8.3-1.1.7zM153 127.8c0 .5.9 1.7 2 2.7 1.1 1 2 1.4 2 1 0-.5.6 0 1.4 1.1.8 1 1.8 1.6 2.2 1.1.4-.4.2-.7-.4-.7-.7 0-1.2-.5-1.2-1.1 0-.6.6-.9 1.3-.6.8.3 1.4-.1 1.4-.8 0-1-.5-1.1-1.6-.5-.9.4-2 .8-2.6.8-1.6 0-3.5-1.9-2.9-2.9.3-.5 0-.9-.5-.9-.6 0-1.1.4-1.1.8zM146.5 134.9c-.3.5 0 1.3.6 1.7.7.4.9.3.5-.4-.3-.5 0-1.3.6-1.5.9-.4 1-.6.1-.6-.6-.1-1.4.3-1.8.8zM154.6 145.7c-.4.5-1.2.9-1.7.9-.5.1-1.2.2-1.5.3-.4 0-.1.8.6 1.6.8 1 .9 1.5.2 1.5-.6 0-1.6-.8-2.1-1.8-.6-.9-1.1-1.2-1.1-.5 0 .6.8 1.8 1.9 2.5 1 .7 1.7 2.1 1.5 3.1-.2 1.4.1 1.5 1 .8.7-.6 1.6-.8 2-.4.4.4.4 0 0-1-.3-.9-1-1.7-1.6-1.7-.5 0-.7-.4-.3-1 .3-.5 1.3-.6 2.3-.3 1.4.5 1.4.3-.2-.9-1.9-1.5-1.9-1.5 0-2.6 1-.6 1.4-1.2.8-1.2-.6 0-1.4.3-1.8.7zM168 153c-.8.5-1.6 1.4-1.6 2-.1.5-.2 1.3-.3 1.7 0 .4-.8-.3-1.7-1.5-1.6-2.3-1.7-2.3-3.6-.5-1.1 1-2.3 1.6-2.6 1.3-.3-.3-.6.3-.8 1.2-.3 2.1 2.1 4.4 3.1 2.8 1-1.6 2.8-1.2 2.2.5-.4.8-.2 1.7.3 2 .6.4 1 1.1 1 1.6 0 .6-.4.8-.9.4-.6-.3-.8.4-.6 1.6.5 2.4 3.5 6.2 4.3 5.4.3-.3 1.1 0 1.8.6.8.7 1.4.7 1.9-.1 1.1-1.8 2.4-1.1 2 1.1-.3 1.2-.2 1.9.2 1.5.3-.3 1.2-.1 1.8.4.9.7 1.6.6 2.4-.4.9-1 .8-1.6-.4-2.6-1.2-1-1.2-1.5.2-3.6 1.5-2.3 1.4-2.4-.3-1.8-1.6.6-1.5.2.6-2.2 1.4-1.5 1.8-2.4 1-1.8-.8.6-1.9 1-2.5.9-1.9-.2-5.5-2.6-5.5-3.7 0-.7.5-.7 1.4.1 1.8 1.5 1.6-.3-.4-3.9-.8-1.4-1.3-2.8-1.2-3.3.3-.9 0-.9-1.8.3zm-4.5 3c-.9 1.4 2 1.8 3.8.5 1.4-1 1.5-1.4.5-1.8-.8-.3-.8-.6-.2-.6.7-.1 1.9 1.1 2.9 2.5.9 1.5 1.2 2.4.7 2-.6-.3-1.4-.1-1.8.5-.9 1.5 4.5 6.1 6 5.2.6-.3.5 0-.1.7-.9.9-.9 1.7-.2 2.6.7.8.7 1.4-.1 1.9-.8.5-.6 1.3.5 2.5 1 1.1 1.2 2 .6 2.4-1.5.9-3.1-2.1-3.4-6.6-.1-1-.7-2-1.4-2.2-.9-.4-1 .1-.3 1.9 1 2.6-1.2 5.7-2.5 3.5-.3-.6-1-.8-1.5-.5-1.5.9-4.1-3.7-2.9-5.1.6-.7.7-1.9.3-2.6-.5-.7-.9-1.8-1-2.3 0-.6-.2-1.6-.2-2.4-.2-1.1-.6-1-2.2.4-1.1 1-2 1.6-2.1 1.4 0-.2-.2-1.2-.4-2.2-.2-.9 0-1.5.5-1.2.4.3 1.3-.2 2-1 1.2-1.5 3.5-1.1 2.5.5z"/><path d="M160.4 157.2l-1.9 2.3 2.3-1.9c2.1-1.8 2.7-2.6 1.9-2.6-.2 0-1.2 1-2.3 2.2zM166.5 158c-.4.6-1 .8-1.4.6-1.2-.8-.6 3.3.7 4.6 1.3 1.3 1.6 2.9.5 2.7-2-.3-2.3.3-1.3 2.1.6 1.1 1.5 1.8 2 1.5.5-.3 1.1-.1 1.5.5.4.6 1.1.8 1.6.4.6-.3.6-1.1.1-1.7-.7-1.1-.8-2.2-.3-4.2 0-.3 1.1-.1 2.4.5 1.3.7.9.1-1.1-1.5-2.3-1.9-3.1-3.2-2.7-4.6.7-2-.9-2.7-2-.9zm.9 1.3c-.3.8.2 2 1 2.7.9.7 1.3 1.7 1 2.2-.3.5-1.4.2-2.5-.8-1.4-1.3-1.6-2.1-.8-3.5 1.1-2.2 2.1-2.6 1.3-.6zm1 7.5c-.5.4-1.2 1.1-1.5 1.5-.3.5-.9.2-1.2-.5-.3-.9.3-1.4 1.5-1.5 1.1-.1 1.6.1 1.2.5z"/><path d="M166 161.4c0 .2.8 1 1.8 1.7 1.5 1.3 1.6 1.2.3-.4s-2.1-2.1-2.1-1.3zM188.6 167.8c-.3.5.1.9.9.9s1.2-.4.9-.9c-.3-.4-.7-.8-.9-.8-.2 0-.6.4-.9.8zM186.4 175.6l-1.8 2.6-1.8-2.4c-1.8-2.2-1.9-2.2-.9-.1 1.6 3.3 2.4 3.4 5.6.9 1.8-1.5 2.4-2.5 1.7-3-.6-.4-1.9.5-2.8 2zM195 175.9c0 .7-.4 1-.9.7-.4-.3-1.8.5-3 1.8-1.9 2-2 2.4-.6 3.6.8.7 1.5.9 1.5.4s.7 0 1.5 1c.8 1.1 1.5 1.4 1.5.8 0-.7.5-1.2 1-1.2.6 0 .9.5.8 1.2-.2.7.6 1.2 1.7 1.2 2.2 0 3.9 2.1 3.1 3.5-.3.5.2 1.5 1.2 2.2 1.5 1.2 1.6 1.2.7-.1-.6-.8-1-2.4-1-3.5s-.8-2.6-1.8-3.4c-1.3-.9-1.6-1.6-.8-2.4 1.7-1.7 1.3-3-.6-2.2-1.3.4-1.5.3-.7-.5.6-.6 2-1.3 3-1.4 1.1-.2 1.8-.6 1.7-.9-.2-.4-.3-1-.3-1.3 0-.3-1 .2-2.2 1-2 1.4-2.4 1.4-4-.1-1.2-1-1.8-1.2-1.8-.4zm2.5 3.1c.1.8.7 1.4 1.5 1.2 1-.2 1.1 0 .2 1.1-.8.9-.8 1.7-.1 2.4.6.6.5 1-.5 1-.8 0-1.4-.5-1.3-1.1.1-.6-.5-1.2-1.3-1.2-.8-.1-1.8-.3-2.2-.4-.9-.3-2.5-.7-3.5-.9-.3 0 .1-.9 1.1-2 2-2.2 6.1-2.3 6.1-.1z"/><path d="M192 179.6c-1.4 1.5 2.1 1.4 3.7-.2 1.1-1 .9-1.2-.7-1.1-1.2.1-2.5.6-3 1.3zM214.1 188.4c-.8 1-.9 1.6-.1 2.1.6.3.7 1.1.4 1.7-.4.7-.2.8.5.4.8-.6.9-1.2.2-2-.7-.9-.7-1.6.1-2.4.7-.7.9-1.2.6-1.2-.3 0-1.1.6-1.7 1.4zM207.5 192c.3.5.8 1 1.1 1 .2 0 .4-.5.4-1 0-.6-.5-1-1.1-1-.5 0-.7.4-.4 1zM206.4 196.4c.1.8.5 1.8.8 2.2.4.3.5-.1.4-1-.1-.8-.5-1.8-.8-2.2-.4-.3-.5.1-.4 1zM217 196.5c-.7.8-1.7 1.2-2.3.8-.6-.3-.7-.1-.3.6.4.6 1.1.9 1.6.6.5-.3 1.2-.1 1.5.5.7 1.2-1.3 4.2-2.4 3.6-.3-.2-.6 1.5-.7 3.9 0 2.4.3 4.2.7 3.9.4-.2 1-.1 1.3.4 1.4 2.3 9.6-.4 9.6-3.2 0-.6-.4-.5-.9.3s-1.1.9-1.5.3c-.3-.6-.2-1.3.3-1.6 1.5-1 .5-4.1-1.2-3.8-1.1.2-1.5-.3-1.2-1.8.2-1.2-.2-2.3-1-2.7-.8-.3-1.3-.9-1-1.3 1-1.6-1.3-2-2.5-.5zm1.5.4c-.3.6 0 1.3.8 1.8.7.4 1.3 1.6 1.4 2.5.2 3.9.3 4.1 1.7 2.9 1.1-1 1.4-.9 1.2.3-.1.9-.5 1.9-.9 2.2-.4.4-.2 1.3.4 2 .7.8.6 1.4-.2 2-.8.4-.9.3-.5-.4s.3-1.2-.3-1.2c-.5 0-1.2.4-1.5.9-.7 1-2.5.9-4.3-.2-1.4-.9-1.3-4.7.1-4.7.5 0 .6-.3.3-.7-.4-.3 0-1.5.9-2.5 1.3-1.3 1.4-2.1.5-3.1-.6-.8-.8-1.7-.4-2 1-1 1.5-.8.8.2z"/><path d="M218.3 202.2c-.8 1.4-1.1 2.4-1.5 5.2-.4 2.8 2.8 2.8 4.7 0 .8-1.3 1.2-2.4.8-2.3-2.3.4-3.1-.3-2.8-2.1.4-2.3 0-2.6-1.2-.8zm2 5.4c-.7 1.9-1 1.8-1.6-.5-.3-1.3-.1-1.8.9-1.4.7.2 1 1.1.7 1.9zM221 218.7c1.3 1.8 3 3.5 3.9 3.8 1.3.4 1.3.3-.1-.8-1.4-1.1-1.5-1.6-.5-2.7.9-1 .9-1.1-.1-.5-.8.4-2.2-.1-3.4-1.2-1.9-1.6-1.9-1.5.2 1.4zM207 218c0 .5.5 1 1 1 .6 0 1-.5 1-1 0-.6-.4-1-1-1-.5 0-1 .4-1 1zM204 221.5c-.7.9-2 1.3-2.8 1-1.2-.4-1.2-.2-.4.8.7.8.9 1.7.5 2-.3.4-.4.7-.2.7.3 0 1.5-1.4 2.7-3 2.3-3.1 2.4-4.2.2-1.5zM189.4 228.1c-.8 1.4 1.4 1.9 2.5.6.8-1 .7-1.4-.5-1.4-.8 0-1.7.4-2 .8zM194.7 228.3c-.3.8.1 1.4.8 1.4.7 0 1.1-.6.8-1.4-.3-.7-.6-1.3-.8-1.3-.2 0-.5.6-.8 1.3zM198.3 229.5c.4.5 0 1.9-.8 3.1-.8 1.3-1.1 2.5-.6 2.9.5.3 1.2.1 1.6-.5.4-.6 1.2-.7 1.8-.3.7.4.7 0-.1-1-.8-.9-1.1-2.1-.8-2.6.4-.5.1-1.3-.6-1.7-.7-.4-1-.3-.5.1zM219.4 230.1c-.8 1.4 1.4 1.9 2.5.6.8-1 .7-1.4-.5-1.4-.8 0-1.7.4-2 .8zM206.6 230.9c-.4.5-.2 1.3.4 1.6.8.5.8 1.1.1 1.9-.8 1-.5 1.8.9 3.1 1.1 1 2 1.6 2.1 1.4 0-.2.2-1.2.4-2.1.2-1-.1-2-.6-2.4-.5-.3-.7-.9-.4-1.4.3-.4-.2-1.3-.9-1.9-.9-.8-1.6-.8-2-.2zm3 5.7c.2 1.2-.1 1.3-1.2.3-.7-.6-1.1-1.6-.8-2.1.7-1.1 1.7-.3 2 1.8zM209.5 182c-.4.6-1.4.9-2.3.8-1.1-.2-1.7.5-1.8 2-.1 1.6.2 2 .9 1.3.8-.8 1.6-.6 2.7.4 1.4 1.3 1.9 1.3 3.6 0 1.6-1.3 1.6-1.4.1-.9-1.3.5-1.6.2-1.1-1 .3-.9 1.1-1.3 1.7-.9.6.3.7.1.3-.5-.4-.6-1.4-.8-2.3-.5-1.1.4-1.4.3-.9-.5.4-.7.5-1.2.2-1.2s-.8.5-1.1 1zm1.1 3.6c.2 1.2-.1 1.3-1.2.3-.7-.6-1.1-1.6-.8-2.1.7-1.1 1.7-.3 2 1.8zM212.5 217c-.3.4.2 1.3 1 2s1.5 1.7 1.5 2.3c0 .6-.3.7-.7.4-.3-.4-1.2-.2-1.9.4-.8.7-1.4.7-1.9-.1-.4-.7-1.3-.7-2.7.1-2.1 1.1-2.1 1.2-.3 2.5 1.4 1 1.5 1.4.4 1.4-1.2 0-1.2.2.1 1 1 .6 2 .4 3.1-.6.8-.8 1.9-1.1 2.3-.7.4.5.7.3.6-.2-.4-2 .1-3 .8-1.7 1 1.5 5 2.4 5.7 1.2.3-.4-.9-2-2.6-3.4-2.8-2.4-2.9-3.1-.4-2.6.6.1.4-.4-.2-1.1-1.5-1.5-4.1-2-4.8-.9zm3.5.6c0 .8-1.9 1.3-2.4.6-.3-.5.1-.9.9-.9s1.5.2 1.5.3zm2.4 5.3c1.2 1.4 1.4 1.9.4 1.7-2.2-.3-3.9-1.7-3.3-2.7.8-1.2.9-1.2 2.9 1zm-5.7 0c2.4-2.1 1.3-.3-1.4 2.2-1.4 1.3-2.3 1.8-1.9 1.1.4-.7.1-1.5-.9-1.8-1.3-.5-1.4-.8-.3-1.5.7-.4 1.7-.4 2.2.1.6.6 1.5.5 2.3-.1zM148 217.3c-1.2 2.1-1.2 2.1.6.7 1-.8 2-1.5 2.2-1.6.2-.1-.1-.4-.5-.7-.5-.3-1.5.4-2.3 1.6zM165.5 226c-.4.6-2.2.9-4.1.6-2.6-.2-3.7.1-4.4 1.5-.7 1.2-.7 2 0 2.4.6.3.8 1.7.6 3-.5 2.4-.4 2.4 2.2.7 1.8-1.2 2.4-1.3 1.8-.3-.6 1-.5 1.2.2.7.8-.5 1-.1.5.9-.4 1.3-.8 1.4-1.4.4-.4-.8-1.1-1-1.6-.6-1.1 1.2 1.6 2.5 3.8 2 2-.6 2.5-1.8 1.1-2.7-1.3-.8-.8-4.1 1.1-7 1-1.4 1.5-2.6 1.3-2.6-.3 0-.8.5-1.1 1zm-4.5 2c.7-1.1 1-1.1 1-.2 0 .8.5 1 1.3.6.9-.5.9-.4 0 .6-.6.7-.9 2-.6 2.9.4 1.1.1 1-1-.4-.8-1.1-1.9-1.7-2.3-1.2-.4.4-.2.7.4.7 1.7 0 1.5 1.7-.2 2.3-1 .4-1.3.1-1-.7.3-.8.1-1.7-.5-2-.6-.4-.7-1.4-.4-2.2.5-1.3.7-1.3 1.4-.2s1.1 1 1.9-.2zM144.7 227.4c-1.5 1.2-1.5 1.4-.2 1.9.8.4 1.2 1.3.9 2.2-.3.8-1.1 1.2-1.8.8-.6-.4-.5.1.3 1.1.8.9 2 1.5 2.6 1.2.7-.2 1.8 0 2.4.5.7.6.8.5.2-.2-.5-.6-.7-1.8-.3-2.7.4-1.1.1-1.4-1.1-.9-1.1.4-1.4.2-1-.9.3-.7 0-1.4-.7-1.4-1 0-1-.3 0-1.5 1.5-1.8 1.1-1.9-1.3-.1zm2.8 5.6c-.3.5-1.2 1-1.8 1-.7 0-.6-.4.3-1 1.9-1.2 2.3-1.2 1.5 0zM170.6 227.8c-.3.5.1.9.9.9s1.5-.4 1.5-.9c0-.4-.4-.8-.9-.8-.6 0-1.2.4-1.5.8zM179 228.1c0 .5.5.9 1.2.9.6 0 .9.3.5.6-.9.9 2.1 6.4 3.6 6.4.8 0 .7.4-.3 1-1.3.9-1.3 1 0 1s1.3.1 0 1c-.8.5-1.1 1.2-.7 1.6.4.4 0 1.5-.9 2.5-1.4 1.6-1.4 1.7 0 1.5.8-.1 1.9-.5 2.2-.9.4-.4 1.4-.2 2.1.5 1.1.9 1.6.9 2.3-.2.7-1.2 1.1-1.2 2.7 0 1.7 1.4 1.7 1.4 0-.7-1.8-2-1.8-2.2 0-3.2 1.3-.7 1.4-1 .4-1.1-1.1 0-1-.4.4-1.3 1.8-1.4 1.3-4.3-.6-3.2-1.3.9-1.1-.9.4-2.5 1-1.2.9-1.2-.6 0-1.5 1.1-2 1.1-2.6.1-.5-.7-1-1.1-1.2-1-.2.2-1.7-.6-3.3-1.6-3.3-2.2-5.6-2.8-5.6-1.4zm8.6 4.7c2.3 1.7 4.4 2.9 4.8 2.5.3-.3.6-.2.6.4 0 .6-.7 1.3-1.5 1.7-.8.3-1.4.9-1.3 1.3.1.4-.4 1.8-1.1 3.1-.9 1.7-1.6 2.1-2.5 1.3-.9-.7-1.7-.7-2.6.2-1.2 1-1.2.9-.1-.6.7-.9 1-1.7.6-1.7s-.2-.6.4-1.3c.6-.8.8-1.7.4-2-.3-.4-.1-.7.5-.7s1.4.5 1.7 1c.4.6 1.1.8 1.6.4.5-.3.7-1 .3-1.5-.3-.5-1-.7-1.5-.4-.5.4-.9.1-.9-.4 0-.6-.3-1-.7-1-2.2.4-3.2-.3-3.9-2.4-1.3-3.8-1.3-4.9-.1-3.9.7.4 3 2.3 5.3 4z"/><path d="M183.1 232.1c.9 1.3 2 2.3 2.5 2.2.5-.1 2 .5 3.4 1.3 2 1.2 1.9 1-.5-1.1-1.6-1.4-3.9-3.1-5-3.7-1.9-1.1-1.9-1-.4 1.3zM185.4 240.1c-.2.4.4 1.3 1.4 2 .9.7 1.4.9 1 .5-.4-.5-.1-1.4.8-2 1.3-1 1.2-1.2-.6-1.2-1.2 0-2.3.3-2.6.7zM153.6 237.8c-.2.4-.1 1.4.3 2.1.6 1 1 .9 1.4-.3.6-1.6-.8-3.2-1.7-1.8zM152.1 231.6c1.4 1.7 3.2 1.9 2.7.2-.2-.6-1.2-1.2-2.2-1.4-1.4-.2-1.5 0-.5 1.2zM166.6 232.8c-.3.5.1 1.5.8 2.1 1.1 1 1.4.9 1.2-.3-.3-2.1-1.3-2.9-2-1.8zM187.5 160c-.3.5-.1 1 .4 1 .6 0 1.1-.5 1.1-1 0-.6-.2-1-.4-1-.3 0-.8.4-1.1 1zM227 220.2c0 .4.7.8 1.5.8s1.5-.4 1.5-.8c0-.5-.7-.9-1.5-.9s-1.5.4-1.5.9z"/></svg>