<?xml version="1.0" standalone="no"?>
<!DOCTYPE svg PUBLIC "-//W3C//DTD SVG 20010904//EN"
 "http://www.w3.org/TR/2001/REC-SVG-20010904/DTD/svg10.dtd">
<svg version="1.0" xmlns="http://www.w3.org/2000/svg"
 width="370.000000pt" height="370.000000pt" viewBox="0 0 370.000000 370.000000"
 preserveAspectRatio="xMidYMid meet">
<metadata>
Created by potrace 1.11, written by Peter Selinger 2001-2013
</metadata>
<g transform="translate(0.000000,370.000000) scale(0.100000,-0.100000)"
fill="#000000" stroke="none">
<path d="M1565 3546 c-238 -42 -492 -146 -685 -283 -117 -84 -315 -280 -393
-390 -81 -115 -150 -241 -197 -360 -39 -99 -84 -252 -95 -323 -3 -19 -9 -60
-14 -90 -13 -84 -11 -313 4 -425 76 -564 411 -1038 911 -1290 244 -122 478
-176 761 -177 95 0 176 3 180 5 4 3 33 8 63 11 140 17 368 89 521 167 215 108
458 317 601 519 123 173 225 399 272 602 30 127 43 270 40 406 -17 600 -322
1121 -835 1426 -145 86 -393 178 -545 200 -21 4 -64 10 -94 15 -106 18 -355
11 -495 -13z m501 -229 c12 -3 38 -8 58 -11 69 -11 123 -26 212 -57 348 -123
648 -391 809 -724 154 -317 185 -599 110 -980 -21 -103 -109 -313 -181 -427
-201 -321 -560 -568 -929 -642 -120 -24 -169 -28 -295 -29 -455 -1 -879 214
-1160 588 -79 105 -182 313 -220 445 -105 366 -70 738 102 1073 196 381 585
673 1003 751 44 8 89 17 100 19 28 6 365 1 391 -6z"/>
<path d="M1769 2731 c-1 -3 -1 -8 -1 -12 0 -3 -9 -11 -21 -18 -18 -11 -20 -11
-9 0 18 19 15 28 -8 26 -11 -1 -20 -6 -20 -11 0 -5 -3 -6 -7 -3 -3 4 -12 2
-20 -4 -7 -6 -13 -8 -13 -4 0 4 -7 2 -15 -5 -8 -7 -15 -9 -15 -5 0 3 -12 -3
-26 -14 -15 -11 -30 -19 -34 -16 -5 3 -19 -8 -33 -24 -14 -17 -27 -28 -30 -25
-6 7 -67 -77 -67 -93 0 -7 -6 -13 -12 -13 -9 0 -8 -4 2 -10 13 -9 7 -14 -12
-11 -14 2 -9 -11 10 -26 16 -13 16 -13 -3 -11 -17 3 -20 -2 -19 -29 1 -18 -1
-31 -5 -29 -3 2 -6 -22 -6 -54 0 -46 3 -56 14 -52 10 4 12 1 5 -9 -12 -20 -16
-49 -6 -49 5 0 9 -6 10 -12 2 -28 9 -47 21 -62 7 -9 10 -16 6 -16 -5 0 2 -8
13 -19 12 -10 18 -22 14 -26 -4 -5 -2 -5 4 -2 7 4 17 0 24 -8 7 -8 9 -15 5
-15 -4 0 -2 -7 5 -15 6 -8 17 -13 23 -12 7 1 11 -4 9 -12 -3 -12 0 -12 13 -1
13 11 15 10 9 -4 -4 -10 -1 -17 7 -18 8 0 19 -2 24 -3 6 -2 15 -3 20 -4 6 -1
3 -6 -5 -12 -13 -9 -13 -10 2 -6 9 3 19 -1 22 -9 3 -9 12 -14 19 -11 6 2 24
-5 40 -15 15 -11 27 -16 27 -12 0 3 6 1 13 -5 8 -6 17 -8 20 -4 4 3 7 1 7 -6
0 -7 5 -9 10 -6 6 3 10 1 10 -5 0 -6 4 -9 9 -6 5 4 12 0 14 -6 4 -10 6 -10 6
0 1 10 5 10 17 -2 8 -9 20 -14 25 -11 5 4 9 1 9 -6 0 -7 3 -10 6 -6 4 3 22 -5
40 -20 19 -14 34 -21 34 -17 0 5 7 0 15 -10 8 -11 15 -14 15 -7 0 7 5 9 10 6
6 -4 8 -10 5 -14 -6 -11 40 -53 48 -44 4 3 7 1 7 -5 0 -7 -6 -12 -12 -12 -9 0
-8 -4 2 -10 8 -5 11 -10 6 -10 -5 0 -3 -6 3 -14 6 -7 9 -21 5 -30 -4 -9 -1
-16 6 -16 10 0 10 -3 0 -15 -10 -11 -10 -18 -1 -29 9 -11 9 -15 0 -18 -7 -2
-13 -13 -14 -25 0 -11 -8 -32 -17 -45 -13 -20 -14 -28 -5 -38 9 -10 9 -12 -4
-7 -21 7 -39 -11 -31 -32 5 -14 4 -14 -14 -1 -19 14 -19 14 0 -8 11 -12 14
-22 9 -22 -6 0 -16 7 -23 15 -8 10 -18 12 -29 6 -9 -5 -22 -6 -28 -4 -7 3 -13
0 -13 -7 0 -13 -32 -9 -42 5 -5 6 -8 5 -8 -3 0 -8 -5 -10 -12 -5 -18 11 -78
11 -78 1 0 -5 -5 -6 -10 -3 -6 4 -7 12 -3 18 4 7 -5 4 -21 -6 l-28 -19 7 24
c4 15 3 19 -3 10 -7 -11 -10 -10 -16 3 -3 9 -10 14 -15 11 -5 -4 -11 -1 -13 4
-2 6 -10 12 -18 14 -35 6 -59 18 -64 32 -3 8 -10 13 -14 10 -5 -3 -21 6 -37
20 -15 13 -33 24 -39 24 -6 0 -5 -4 3 -9 11 -7 10 -10 -4 -18 -10 -6 -17 -22
-17 -36 0 -16 -5 -24 -11 -20 -5 3 -7 1 -3 -5 3 -6 2 -14 -4 -17 -8 -5 -7 -12
2 -23 11 -13 11 -15 -4 -10 -20 8 -31 -25 -14 -43 8 -9 7 -11 -7 -6 -15 6 -16
4 -7 -13 9 -16 8 -18 -5 -14 -8 4 -15 1 -15 -6 0 -6 4 -9 9 -6 5 3 11 -1 15
-9 3 -9 12 -12 22 -8 13 5 15 3 9 -8 -4 -8 -4 -11 0 -6 5 4 18 -1 29 -10 18
-16 19 -16 8 -1 -12 15 -11 17 7 15 16 -1 20 -6 16 -22 -3 -11 -2 -14 1 -7 5
10 10 8 21 -8 12 -17 18 -19 29 -9 9 7 14 8 14 1 0 -9 22 -21 53 -28 4 -1 8
-3 10 -4 1 -1 16 -3 32 -5 17 -1 30 -3 30 -5 0 -1 15 -3 33 -5 18 -2 30 0 27
5 -3 4 2 11 11 14 8 3 12 2 9 -4 -10 -16 6 -34 16 -19 6 9 12 10 17 4 12 -17
51 -15 45 3 -5 11 0 10 23 -4 15 -11 25 -14 21 -7 -4 6 -3 14 3 18 5 3 10 2
10 -4 0 -5 15 -9 34 -8 29 2 32 4 23 16 -9 12 -9 13 0 7 7 -4 22 -9 32 -11 15
-3 18 0 14 13 -6 15 -5 15 10 3 14 -11 20 -11 32 -1 8 7 15 9 15 5 0 -5 8 -1
18 8 9 8 20 15 24 14 4 -1 18 7 30 18 13 11 25 20 28 20 3 0 11 4 18 9 10 6
10 11 1 22 -12 15 0 20 17 6 5 -4 8 -6 7 -4 -1 2 8 15 20 29 12 13 22 29 22
34 0 5 6 14 14 18 7 5 10 14 7 20 -4 6 -2 11 5 11 7 0 4 6 -7 14 -10 8 -16 18
-12 22 4 4 2 14 -4 23 -10 13 -9 13 7 -1 14 -12 25 -14 35 -8 12 8 12 10 1 10
-10 0 -11 3 -2 13 6 8 8 17 4 20 -3 4 -2 7 4 7 5 0 9 16 8 36 -1 19 2 37 7 40
5 3 5 11 0 17 -5 7 -8 33 -7 59 1 38 -1 45 -12 37 -16 -14 -17 -5 -2 23 8 15
8 19 0 14 -7 -5 -10 1 -7 16 4 27 -22 71 -37 61 -6 -4 -8 0 -5 8 7 18 -25 64
-44 64 -7 0 -13 6 -13 13 0 6 -4 13 -10 14 -5 1 -16 8 -23 15 -8 7 -19 10 -25
6 -6 -4 -8 0 -4 10 4 12 2 14 -10 10 -12 -5 -14 -3 -8 8 4 8 5 11 0 7 -4 -4
-21 2 -36 13 -16 11 -29 17 -29 12 0 -4 -5 -1 -10 7 -7 11 -10 11 -10 2 0 -7
-5 -10 -10 -7 -6 4 -8 11 -5 16 4 5 -1 12 -10 16 -10 3 -21 0 -26 -8 -5 -8 -9
-11 -10 -6 -1 4 -3 12 -4 17 -1 6 -3 13 -4 16 0 4 -9 0 -18 -7 -15 -12 -16
-12 -11 3 9 22 -18 17 -35 -7 -9 -11 -19 -15 -27 -10 -9 6 -11 4 -5 -6 7 -11
5 -11 -11 1 -18 14 -18 14 -4 -5 14 -19 14 -19 -3 -6 -13 10 -15 17 -6 27 6 8
16 11 22 7 6 -3 7 -1 3 5 -4 7 1 10 14 7 11 -2 20 0 20 6 0 5 -4 9 -10 9 -21
0 -25 2 -42 17 -10 9 -18 13 -18 8 0 -4 -7 -2 -15 5 -8 7 -15 9 -15 4 0 -4
-11 3 -25 16 -14 13 -25 19 -25 14 0 -5 -5 -1 -11 9 -6 9 -14 15 -20 12 -5 -4
-9 0 -9 7 0 7 -8 23 -18 35 -12 17 -21 20 -32 13 -13 -9 -13 -11 0 -19 8 -5
17 -8 21 -5 4 2 7 -5 6 -16 -2 -26 -8 -25 -30 6 -17 22 -17 27 -4 42 8 9 14
31 12 47 -1 17 3 36 9 44 8 11 8 13 -1 7 -7 -4 -13 -2 -13 3 0 6 5 11 11 11 5
0 8 4 5 9 -3 5 1 14 8 21 8 6 13 20 11 32 -3 14 0 18 11 14 8 -3 13 -2 10 2
-5 9 54 42 89 50 29 7 136 5 165 -3 14 -3 30 -7 35 -8 6 -2 15 -6 22 -10 6 -4
14 -3 18 3 3 5 11 10 17 10 6 0 5 -7 -3 -17 -10 -11 -10 -14 -1 -9 7 4 12 2
12 -4 0 -7 8 -9 20 -5 11 4 19 3 18 -2 -2 -4 0 -8 4 -8 3 0 18 -11 32 -24 14
-14 26 -20 26 -15 0 5 5 2 10 -6 8 -13 10 -12 11 5 1 11 1 26 0 34 -2 7 2 10
8 6 6 -3 11 -1 11 4 0 22 2 26 17 44 9 9 13 17 8 17 -4 0 -1 7 6 16 8 9 14 24
14 33 0 9 6 15 13 13 10 -2 10 2 0 18 -7 11 -17 20 -21 20 -5 0 -15 7 -24 15
-8 8 -18 13 -23 10 -4 -3 -11 2 -14 11 -4 9 -9 14 -13 11 -3 -4 -12 -2 -20 4
-7 6 -13 8 -13 5 0 -4 -10 -1 -22 6 -13 6 -30 13 -38 14 -28 3 -45 9 -53 19
-5 6 -5 -1 -2 -14 5 -16 4 -21 -4 -17 -6 4 -11 14 -11 22 0 8 -7 14 -15 14 -8
0 -15 -5 -15 -11 0 -5 -5 -7 -10 -4 -6 4 -8 10 -6 13 2 4 -19 7 -49 7 -43 0
-52 -2 -47 -15 5 -13 4 -13 -12 0 -18 14 -85 22 -87 11z m82 -18 c12 -12 42
-6 34 6 -2 4 12 7 32 6 25 0 40 -7 51 -23 13 -20 13 -22 -2 -16 -19 7 -21 -6
-3 -26 9 -11 8 -11 -8 0 -19 14 -19 14 -5 -4 13 -18 13 -19 0 -12 -8 4 -7 1 3
-7 14 -12 15 -16 4 -26 -8 -6 -17 -8 -20 -4 -4 3 -7 1 -7 -5 0 -7 -5 -12 -12
-12 -9 0 -9 3 0 12 18 18 15 31 -5 24 -15 -5 -15 -4 1 9 19 14 12 21 -16 16
-5 0 -8 4 -8 10 0 6 8 8 19 4 23 -7 38 12 22 28 -9 9 -11 8 -6 -5 4 -11 2 -18
-5 -18 -6 0 -9 4 -5 9 3 5 0 13 -6 17 -8 4 -9 3 -5 -4 4 -8 2 -10 -8 -6 -16 6
-49 -35 -44 -56 2 -7 -4 -15 -12 -17 -13 -4 -13 -3 0 6 13 10 13 11 0 12 -8 1
-19 1 -23 0 -5 -1 -6 3 -2 9 3 6 0 7 -9 4 -9 -3 -18 0 -21 8 -6 15 -35 21 -35
6 0 -4 8 -8 17 -8 21 0 8 -13 -17 -17 -14 -2 -18 2 -15 17 2 10 -3 24 -11 31
-18 15 -18 25 2 33 14 5 15 4 5 -8 -8 -9 -8 -16 -2 -20 5 -4 12 -2 16 4 4 6
11 8 16 5 8 -5 13 6 11 26 -1 10 67 4 79 -8z m145 -1 c-2 -4 4 -13 14 -20 16
-10 21 -9 29 6 6 9 11 12 11 6 0 -6 10 -11 23 -10 12 1 32 -4 45 -12 12 -8 22
-11 22 -7 0 4 7 2 15 -5 8 -7 15 -9 15 -4 0 5 5 1 11 -9 8 -14 8 -22 -1 -30
-9 -9 -11 -9 -7 -1 4 7 0 17 -8 24 -8 7 -15 9 -15 5 0 -4 -8 -1 -17 6 -14 12
-16 12 -8 0 6 -10 4 -12 -5 -6 -9 6 -11 4 -5 -5 6 -9 4 -11 -6 -6 -8 4 -6 1 4
-7 10 -9 14 -18 8 -21 -5 -3 -12 0 -14 6 -3 7 -4 0 -4 -17 1 -16 9 -36 17 -43
13 -12 13 -13 0 -9 -8 2 -19 13 -25 25 -5 12 -13 22 -18 22 -4 0 -3 -9 3 -20
15 -29 5 -25 -15 6 -9 15 -13 24 -8 21 5 -3 9 3 9 13 0 10 -5 16 -10 13 -5 -3
-6 -2 -3 3 3 6 2 16 -4 24 -7 13 -9 13 -9 0 0 -13 -1 -13 -10 0 -9 13 -10 13
-10 0 0 -12 -2 -12 -9 -2 -6 10 -10 10 -21 -3 -11 -13 -10 -14 6 -9 18 7 18 7
1 -13 -17 -19 -17 -21 5 -36 18 -13 19 -15 4 -10 -16 5 -18 3 -13 -11 5 -11 3
-15 -5 -10 -7 5 -8 3 -3 -7 7 -11 6 -12 -7 -2 -8 7 -18 10 -22 6 -4 -4 -4 1
-1 12 6 16 5 17 -3 5 -21 -28 13 -47 47 -26 10 7 12 6 6 -4 -6 -9 -4 -11 5 -5
9 6 11 4 5 -5 -6 -9 -4 -11 5 -5 9 6 11 4 5 -4 -6 -10 -2 -10 16 0 13 7 28 12
32 11 5 -1 5 3 1 9 -4 8 -3 9 5 5 6 -4 8 -12 5 -18 -4 -6 -3 -8 3 -5 5 3 10 0
10 -8 0 -8 -4 -12 -8 -10 -4 3 -5 -5 -1 -17 3 -14 2 -19 -7 -14 -6 4 -9 11 -6
16 3 4 -1 13 -9 19 -11 9 -15 8 -20 -5 -5 -13 -9 -14 -21 -4 -8 7 -15 9 -15 5
0 -4 -7 -2 -15 5 -8 6 -19 9 -25 5 -5 -3 -10 -2 -10 3 0 5 -20 8 -45 7 -25 -2
-45 1 -45 7 0 5 4 7 9 4 5 -3 15 2 22 11 12 14 12 16 0 8 -9 -5 -12 -4 -7 3 3
6 2 13 -4 17 -6 4 -8 10 -5 15 3 5 0 12 -6 16 -7 4 -10 3 -6 -2 3 -5 -1 -18
-9 -29 -8 -11 -14 -13 -14 -6 0 8 -6 11 -16 7 -9 -3 -12 -2 -9 4 4 6 3 10 -2
9 -19 -3 -34 2 -28 10 3 5 0 13 -6 17 -7 4 -9 3 -5 -4 3 -6 2 -13 -3 -17 -6
-3 -8 -13 -5 -23 5 -13 4 -14 -4 -3 -5 7 -12 9 -15 5 -3 -5 7 -18 22 -29 26
-19 26 -19 12 0 -14 19 -14 19 4 3 15 -14 17 -20 7 -30 -9 -9 -12 -9 -12 3 -1
11 -3 10 -13 -3 -8 -9 -20 -18 -27 -20 -8 -2 -21 -9 -28 -16 -8 -7 -18 -10
-23 -7 -9 6 -10 2 -13 -36 0 -11 -8 -26 -17 -32 -11 -9 -15 -27 -14 -67 1 -36
-3 -61 -12 -72 -13 -14 -12 -20 8 -47 17 -23 28 -29 50 -26 18 2 30 -2 33 -11
3 -9 10 -13 15 -10 4 3 16 -3 26 -14 10 -11 21 -17 26 -15 4 3 10 1 14 -5 4
-6 10 -8 15 -5 4 3 13 -1 19 -9 9 -11 6 -18 -14 -34 l-25 -20 25 -16 c24 -16
26 -15 47 4 12 11 29 19 38 18 8 -1 21 1 29 6 9 6 12 5 8 -1 -4 -6 0 -16 7
-22 10 -8 16 -9 21 -1 3 5 12 10 18 10 8 0 8 -3 -1 -9 -11 -6 -10 -10 5 -16
10 -5 26 -9 36 -9 9 -1 32 -13 50 -27 17 -14 37 -27 42 -28 6 -1 17 -9 26 -17
9 -8 19 -11 24 -7 4 5 5 3 2 -3 -4 -7 0 -17 8 -24 8 -7 15 -9 15 -4 0 5 9 -2
20 -16 13 -18 16 -28 8 -37 -10 -12 -5 -15 19 -12 7 1 26 -30 29 -48 1 -7 -2
-13 -8 -13 -6 0 -5 -6 2 -15 10 -12 10 -18 0 -30 -12 -14 -5 -20 21 -17 4 1 5
-17 4 -38 -2 -22 1 -43 6 -46 5 -3 6 -11 2 -17 -4 -6 -8 -23 -9 -37 -2 -23 -9
-57 -14 -70 -1 -3 -2 -9 0 -15 1 -5 -7 -2 -17 7 -12 12 -23 14 -34 7 -12 -6
-21 -4 -30 9 -13 16 -13 16 6 2 19 -14 19 -14 5 5 -11 16 -11 17 0 8 19 -17
33 -16 27 2 -4 8 -2 17 3 20 9 6 14 -8 11 -28 -1 -5 2 -6 7 -3 4 2 8 23 7 45
-1 24 3 37 9 34 5 -4 -1 9 -14 27 -13 19 -18 30 -9 26 7 -4 3 2 -10 13 -13 12
-19 21 -13 21 6 0 18 -7 26 -16 21 -20 21 -4 0 22 -8 10 -13 13 -9 7 4 -9 1
-11 -11 -6 -14 5 -14 8 6 23 23 17 23 18 -23 16 -26 -2 -50 -6 -54 -9 -3 -4
-11 -7 -17 -7 -6 0 -2 7 8 15 15 11 17 17 7 29 -9 11 -9 16 0 22 8 5 9 3 4 -6
-6 -9 -4 -11 5 -5 9 6 11 4 5 -5 -5 -8 -4 -11 3 -6 6 4 8 14 5 23 -4 10 -2 14
4 10 6 -4 17 1 24 11 13 15 12 16 -3 4 -15 -12 -17 -11 -13 7 2 11 -1 24 -7
27 -7 5 -8 2 -3 -7 5 -8 5 -11 1 -7 -4 3 -6 8 -4 11 2 3 -6 13 -17 23 -12 11
-14 15 -5 9 11 -7 11 -5 -3 11 -9 11 -14 24 -10 28 5 4 1 6 -7 4 -8 -2 -19 -7
-23 -13 -5 -6 -6 -1 -3 10 6 20 6 20 -9 1 -8 -11 -15 -16 -15 -12 0 5 -8 2
-17 -5 -15 -12 -16 -12 -8 1 8 13 7 13 -11 0 -10 -8 -16 -10 -12 -6 4 5 2 16
-5 24 -8 11 -8 14 0 9 7 -5 10 1 9 18 -2 13 0 22 4 20 4 -3 13 2 20 10 9 10 9
15 1 15 -6 0 -11 -5 -11 -11 0 -5 -5 -7 -11 -4 -6 4 -8 14 -5 24 6 15 5 15 -7
-1 -12 -15 -14 -15 -25 0 -10 15 -11 15 -5 -3 6 -18 5 -18 -10 -6 -13 11 -17
11 -17 1 0 -8 -3 -10 -7 -6 -5 4 1 14 11 22 11 8 15 14 8 14 -6 0 -17 -9 -25
-21 -9 -13 -17 -16 -22 -10 -3 6 -1 11 5 11 6 0 8 5 5 11 -5 6 -11 4 -19 -6
-11 -15 -12 -13 -12 11 1 19 -4 28 -17 30 -17 2 -17 1 -3 -15 19 -20 20 -31 5
-31 -5 0 -8 4 -5 9 3 5 -1 14 -9 21 -14 12 -16 10 -14 -6 2 -15 -26 -22 -41
-11 -8 6 -12 7 -8 3 4 -5 3 -15 -3 -23 -8 -8 -8 -13 -1 -13 6 0 12 5 14 10 2
6 9 1 16 -11 8 -12 9 -18 3 -15 -6 4 -9 1 -5 -7 6 -17 -21 -43 -31 -27 -3 5 1
10 10 10 20 0 15 22 -6 28 -11 3 -11 2 1 -7 8 -6 11 -11 5 -12 -5 0 -20 -2
-33 -5 -13 -2 -21 0 -17 5 3 5 0 13 -6 17 -8 5 -9 3 -4 -6 5 -9 4 -11 -4 -6
-6 4 -9 12 -5 17 4 6 11 5 20 -2 12 -10 17 -9 27 0 9 10 8 12 -7 9 -10 -2 -21
4 -23 12 -4 13 -3 13 7 0 10 -13 11 -12 6 3 -4 12 -2 16 7 12 6 -4 4 0 -6 8
-10 9 -14 18 -8 21 10 7 10 24 -2 44 -10 15 5 16 19 2 7 -7 11 -6 11 4 0 8 -5
12 -10 9 -6 -3 -7 -1 -3 5 5 8 2 10 -8 6 -10 -4 -16 -1 -16 7 0 8 -6 5 -14 -6
-8 -11 -13 -27 -11 -36 2 -8 -3 -16 -11 -16 -11 0 -11 3 -1 16 10 12 9 13 -3
6 -13 -8 -13 -7 0 10 8 11 10 16 3 11 -9 -5 -11 -2 -7 11 5 15 4 16 -6 3 -10
-13 -11 -12 -6 3 4 12 2 16 -6 11 -7 -5 -8 -3 -3 6 6 9 4 11 -6 5 -11 -7 -11
-5 1 10 8 10 10 16 3 12 -6 -4 -14 -3 -18 3 -4 7 -12 7 -24 0 -10 -5 -21 -6
-25 -3 -3 3 -6 0 -6 -8 -1 -8 -7 -3 -15 11 -8 14 -14 20 -15 14 0 -5 -6 -18
-13 -28 -12 -16 -14 -16 -14 -2 0 9 4 16 9 16 4 0 8 5 8 11 0 5 -4 8 -9 5 -5
-3 -15 2 -22 12 -13 16 -13 16 6 2 19 -14 19 -14 6 3 -12 15 -9 21 11 18 4 0
5 7 2 17 -5 14 -4 15 5 2 9 -12 10 -9 7 14 -3 16 -13 37 -23 45 -16 15 -16 15
-2 -4 13 -19 13 -19 -4 -5 -23 18 -57 23 -57 9 0 -5 4 -8 8 -5 4 2 8 -4 8 -15
0 -18 -2 -18 -12 -5 -6 9 -14 13 -17 10 -3 -4 2 -14 11 -23 11 -10 12 -12 2
-6 -12 8 -13 7 -5 -5 6 -9 2 -7 -7 3 -10 11 -18 15 -18 10 0 -5 5 -14 11 -20
8 -8 7 -13 -2 -18 -8 -6 -10 -4 -4 6 7 11 5 11 -10 -1 -17 -13 -18 -13 -10 0
4 8 5 12 1 8 -4 -3 -7 -8 -5 -10 1 -1 -3 -14 -10 -27 -10 -19 -10 -22 0 -16 8
5 10 4 5 -4 -5 -7 -2 -10 6 -9 7 2 12 -3 10 -9 -1 -7 4 -13 10 -13 7 0 5 -5
-4 -11 -10 -5 -18 -15 -18 -22 0 -7 4 -6 10 3 8 13 11 13 22 1 11 -12 10 -12
-2 -6 -13 8 -13 6 -1 -8 13 -16 36 -14 26 3 -3 5 -1 11 4 14 5 3 11 -1 15 -9
3 -8 -2 -18 -11 -23 -11 -6 -12 -11 -4 -16 6 -4 11 -2 11 4 0 6 5 8 11 4 8 -4
7 -9 -2 -16 -11 -8 -11 -9 1 -5 9 3 24 -1 35 -9 14 -10 15 -14 4 -14 -12 0
-12 -2 1 -10 11 -7 6 -8 -15 -5 -17 2 -31 4 -32 6 -2 1 -7 2 -13 3 -5 0 -9 3
-7 7 1 3 -19 29 -45 58 -28 33 -45 61 -43 72 2 11 -2 19 -8 19 -7 1 -1 7 12
14 15 8 20 16 12 20 -6 4 -11 2 -11 -4 0 -7 -5 -10 -12 -8 -14 5 -19 36 -6 44
5 3 2 15 -9 27 -10 12 -14 19 -9 15 5 -4 14 -1 21 8 10 14 12 14 26 -2 12 -16
12 -17 -3 -11 -10 3 -20 1 -24 -6 -4 -7 -4 -9 1 -5 4 4 14 3 22 -3 9 -9 13 -8
13 0 0 6 3 10 8 9 11 -4 53 28 46 35 -4 3 -15 -4 -26 -16 -14 -16 -13 -13 3
12 13 19 17 31 9 26 -9 -5 -11 -4 -6 4 4 6 12 9 17 6 5 -4 9 -1 9 5 0 7 -7 9
-17 5 -14 -5 -15 -3 -6 6 14 14 36 2 29 -18 -4 -9 -2 -12 7 -7 7 5 5 0 -3 -11
-9 -11 -10 -16 -2 -11 7 4 12 2 12 -6 0 -9 3 -9 10 2 9 13 10 13 10 0 0 -13 1
-13 10 0 5 8 10 10 10 4 0 -6 7 -11 15 -11 8 0 11 5 8 10 -3 6 -1 7 4 4 6 -4
16 0 23 8 7 8 8 15 3 15 -6 0 -9 12 -8 28 1 21 6 26 21 24 16 -3 15 -1 -6 17
-14 11 -20 20 -15 21 6 0 16 -5 22 -11 8 -8 13 -7 18 2 6 8 4 10 -6 4 -11 -7
-11 -5 1 10 13 17 13 18 0 11 -8 -4 -7 -1 3 7 14 11 15 16 5 21 -7 3 -1 3 15
1 18 -2 25 0 21 7 -5 7 -2 8 6 3 8 -5 4 6 -9 23 -12 18 -25 32 -28 32 -3 0 1
-8 8 -17 13 -17 13 -17 -7 0 -11 9 -25 14 -30 10 -5 -5 0 3 11 17 13 16 15 21
5 15 -10 -6 -9 -4 2 6 9 9 14 19 11 23 -3 3 -11 -1 -17 -10 -10 -13 -12 -13
-12 5 0 11 4 17 8 15 4 -3 8 0 8 5 0 6 5 11 11 11 5 0 8 -4 5 -9 -3 -5 2 -15
12 -22 16 -13 16 -13 2 6 -14 19 -14 19 5 5 19 -14 19 -14 5 4 -8 11 -10 17
-4 13 6 -3 11 0 11 8 0 12 -3 12 -16 2 -12 -10 -14 -9 -8 5 3 10 1 20 -5 24
-7 5 -8 2 -3 -6 6 -9 4 -11 -5 -5 -8 5 -11 4 -6 -3 3 -6 -3 -16 -14 -22 -11
-6 -20 -8 -20 -4 0 3 -6 2 -12 -3 -7 -6 -21 -9 -31 -8 -9 2 -15 -1 -11 -6 3
-5 2 -14 -2 -21 -12 -18 -14 -59 -3 -53 5 4 9 14 9 23 0 15 2 15 10 2 8 -12
10 -12 10 -1 0 8 3 11 7 7 5 -4 -1 -15 -12 -23 -20 -16 -20 -16 0 -9 l20 6
-20 -16 c-20 -16 -20 -17 0 -10 11 4 16 4 12 0 -4 -4 -1 -14 6 -23 10 -14 10
-14 -5 -3 -18 15 -39 8 -37 -11 0 -9 2 -9 6 1 2 6 8 12 13 12 11 0 7 -43 -5
-53 -6 -5 -1 -6 10 -3 l20 6 -20 -16 -20 -17 20 7 c14 5 17 4 9 -4 -6 -6 -21
-12 -34 -15 -12 -2 -20 -2 -16 2 3 3 1 12 -5 19 -7 8 -7 14 1 19 8 5 5 12 -7
22 -10 8 -12 12 -6 8 9 -4 11 0 7 12 -4 13 -3 15 4 5 8 -11 10 -11 15 1 3 8 0
20 -6 27 -9 10 -9 11 3 6 8 -4 4 2 -10 14 -14 12 -19 19 -13 15 9 -4 11 -1 7
10 -6 14 -8 14 -20 -2 -12 -15 -13 -15 -8 -2 3 10 0 20 -7 25 -8 4 -10 3 -5
-5 10 -16 -22 -64 -37 -55 -7 4 -3 -2 7 -14 11 -12 16 -25 13 -29 -4 -3 -2
-12 4 -19 7 -8 7 -14 -1 -19 -5 -3 -10 1 -10 9 0 9 -5 16 -10 16 -12 0 -9 -22
5 -32 6 -5 4 -8 -5 -8 -12 0 -12 -2 -2 -9 11 -7 10 -9 -3 -14 -9 -4 -14 -3
-10 2 4 8 -3 8 -34 2 -2 -1 2 -8 9 -16 9 -10 9 -15 1 -15 -6 0 -11 -5 -11 -11
0 -5 4 -8 9 -4 5 3 13 0 17 -6 5 -8 3 -9 -6 -4 -9 5 -11 4 -6 -4 5 -7 2 -10
-6 -9 -7 2 -12 -3 -10 -9 1 -7 -3 -13 -8 -13 -6 0 -8 11 -4 28 3 15 7 41 7 58
0 21 5 30 13 27 16 -6 28 14 14 22 -8 5 -7 11 1 21 6 8 8 14 5 14 -4 0 -4 6 1
13 4 6 8 18 9 24 3 16 44 68 54 68 5 0 18 12 29 27 12 14 29 25 38 24 10 -2
25 7 35 18 9 12 17 17 18 12 0 -5 7 -3 15 4 8 7 15 9 15 5 0 -4 8 -1 18 6 9 7
14 9 10 5 -4 -5 0 -15 10 -22 9 -7 18 -22 18 -33 3 -43 3 -44 19 -31 8 7 15 9
15 5 0 -4 6 -2 13 4 11 8 20 6 37 -9 13 -11 27 -20 31 -20 11 0 23 21 26 45 5
26 22 43 20 19 -1 -12 4 -18 13 -16 12 3 13 1 3 -9 -18 -18 -16 -32 3 -25 13
5 14 3 6 -7 -6 -7 -8 -18 -4 -24 5 -9 17 -5 38 12 30 23 36 47 20 73 -5 8 -3
11 5 10 7 -2 14 4 15 12 2 25 4 30 10 30 3 0 3 -4 0 -8z m50 -86 c-1 -12 4
-30 11 -42 11 -18 11 -23 -2 -34 -14 -11 -20 -10 -38 9 -17 17 -18 21 -4 15
23 -9 22 13 -3 28 -17 11 -18 14 -5 28 21 23 42 21 41 -4z m119 6 c0 -12 10
-13 32 -5 7 3 10 10 7 15 -4 6 8 0 25 -13 28 -21 30 -25 16 -35 -11 -8 -13
-14 -5 -19 8 -5 6 -13 -6 -26 -9 -10 -13 -19 -9 -19 4 0 1 -8 -8 -18 -10 -10
-14 -21 -11 -24 3 -4 -4 -9 -16 -13 -18 -6 -19 -9 -8 -23 10 -12 10 -14 1 -8
-8 4 -13 2 -13 -5 0 -7 -10 -3 -23 9 -13 12 -27 19 -32 15 -4 -5 -5 -3 -1 4 3
6 2 14 -4 18 -5 3 -8 16 -6 28 2 12 -2 29 -8 37 -9 13 -9 13 6 2 26 -20 41 -5
23 22 -14 20 -14 25 -1 35 8 7 12 19 10 26 -4 9 1 13 13 11 10 -2 18 -8 18
-14z m-515 -14 c0 -5 -7 -8 -14 -5 -10 4 -13 1 -9 -8 3 -8 9 -12 14 -9 13 7 7
-19 -6 -28 -6 -5 -5 -8 3 -9 24 -3 27 -4 52 -22 13 -9 20 -18 15 -18 -6 -1
-17 -2 -25 -3 -8 0 -16 -7 -16 -13 -1 -7 -3 -16 -4 -20 -1 -5 -2 -11 -2 -14 2
-14 -42 -1 -44 14 -1 10 3 14 12 10 15 -5 19 9 7 21 -5 4 -8 24 -8 44 0 32 -3
37 -22 36 -18 -1 -20 1 -10 17 6 10 14 16 18 13 4 -2 10 0 14 6 7 12 25 4 25
-12z m180 -42 c0 4 6 1 14 -5 11 -10 17 -8 25 6 6 10 11 16 11 13 7 -30 7 -39
2 -39 -18 3 -33 -2 -28 -9 2 -4 -4 -8 -14 -8 -10 0 -17 3 -14 7 2 4 -3 9 -10
12 -8 3 -20 16 -27 29 -12 22 -12 22 15 5 14 -10 26 -15 26 -11z m-276 -40
c15 -24 15 -24 -17 -20 -23 2 -28 1 -17 -6 8 -5 16 -14 16 -20 1 -5 3 -13 4
-17 2 -5 4 -12 5 -18 2 -5 4 -13 5 -17 1 -5 3 -13 4 -20 0 -6 9 -12 18 -14 22
-3 60 25 52 38 -4 7 -2 8 5 4 7 -5 9 -12 3 -19 -5 -7 -8 -26 -6 -43 2 -28 -1
-31 -24 -30 -16 0 -38 12 -54 30 -22 25 -29 28 -41 18 -8 -7 -14 -21 -12 -30
1 -9 -2 -25 -7 -35 -8 -15 -12 -16 -24 -6 -10 8 -12 15 -5 22 7 7 7 15 0 24
-7 7 -8 13 -4 13 4 0 1 8 -6 18 -12 15 -12 16 2 5 13 -10 19 -10 35 2 10 8 15
15 10 15 -5 0 -1 9 8 19 12 13 14 21 6 26 -5 3 -8 11 -4 16 3 5 1 16 -6 24 -8
10 -6 17 12 29 28 20 23 21 42 -8z m34 -278 c-11 -16 -24 -28 -31 -28 -6 0 -2
-6 8 -14 20 -15 29 -46 13 -46 -6 0 -7 8 -3 18 4 12 3 14 -5 6 -14 -14 -3 -43
17 -40 9 2 21 10 28 20 11 15 13 15 19 1 5 -14 8 -14 36 0 16 8 31 13 31 10 1
-3 2 -8 3 -12 1 -5 8 -19 16 -33 8 -14 14 -34 15 -45 0 -29 40 -27 40 2 0 12
4 25 9 30 5 4 6 3 2 -4 -3 -6 -2 -14 3 -17 8 -5 8 -27 1 -46 -1 -3 -2 -9 -1
-14 1 -4 -5 -19 -13 -31 -13 -20 -14 -25 0 -35 8 -7 13 -19 12 -26 -2 -7 2
-13 7 -13 6 -1 10 3 10 8 0 20 14 22 26 3 13 -20 14 -20 36 10 18 25 20 34 11
46 -10 11 -8 16 5 24 10 5 14 14 11 20 -4 7 -2 8 5 4 6 -4 9 -11 6 -16 -5 -8
19 -27 38 -29 4 -1 7 -4 6 -7 0 -4 4 -10 11 -14 8 -5 6 -11 -5 -20 -13 -11
-15 -10 -10 6 4 12 1 11 -8 -5 -9 -15 -17 -20 -21 -12 -4 6 -2 11 3 11 6 0 11
5 11 11 0 8 -6 7 -17 -2 -14 -12 -16 -12 -11 1 3 8 12 14 21 14 9 -1 14 2 12
6 -3 5 -13 8 -23 7 -19 -1 -27 -33 -11 -43 6 -4 3 -14 -8 -27 l-18 -22 25 20
25 20 -19 -23 c-11 -12 -26 -20 -33 -18 -7 3 -15 2 -17 -3 -12 -18 31 -6 55
16 27 25 75 41 63 21 -5 -7 -2 -8 6 -3 9 6 11 4 5 -4 -6 -10 -3 -11 16 -1 21
12 21 14 6 25 -9 6 -14 15 -10 18 3 4 12 2 20 -4 12 -11 16 -8 11 8 -4 11 -27
12 -34 2 -3 -5 -10 -7 -15 -4 -20 13 -7 21 29 21 28 0 39 -5 39 -16 0 -8 -5
-18 -10 -22 -7 -4 -6 -12 4 -24 8 -9 13 -20 12 -23 -4 -8 19 -9 32 -2 14 8 68
11 61 4 -3 -4 1 -15 11 -25 9 -10 13 -18 8 -18 -4 0 3 -8 15 -18 l22 -18 -26
-18 c-21 -13 -25 -21 -17 -30 8 -10 7 -17 -3 -25 -8 -7 -12 -19 -9 -27 4 -12
8 -12 20 -2 16 13 75 19 67 6 -3 -5 -10 -6 -15 -3 -5 4 -9 1 -9 -4 0 -6 4 -11
10 -11 5 0 9 -3 9 -7 -3 -21 2 -33 13 -27 6 4 8 3 4 -4 -3 -6 -2 -13 4 -17 6
-4 8 -11 5 -16 -4 -5 -2 -9 3 -9 4 0 8 -13 8 -30 0 -16 -2 -28 -4 -25 -9 9
-32 -17 -25 -29 5 -7 2 -7 -8 1 -9 8 -20 9 -29 3 -13 -8 -13 -12 3 -27 10 -10
25 -18 35 -18 9 0 17 -7 18 -15 0 -8 2 -18 4 -22 7 -21 5 -35 -8 -50 -8 -10
-11 -18 -7 -18 5 0 -2 -11 -15 -25 -17 -18 -27 -22 -35 -15 -17 14 -28 -13
-12 -29 10 -10 8 -13 -9 -10 -3 1 -19 -12 -35 -27 -16 -15 -29 -23 -29 -17 0
6 6 14 13 16 7 4 8 6 1 6 -7 1 -19 -11 -29 -25 -9 -14 -19 -23 -22 -20 -4 3
-12 1 -20 -6 -10 -8 -17 -8 -25 0 -6 6 -19 7 -33 2 -12 -4 -28 -4 -35 0 -8 5
-18 6 -22 4 -9 -6 -11 10 -2 19 4 4 12 3 18 0 6 -4 25 -8 43 -8 27 -1 30 1 22
16 -6 11 -5 20 1 24 10 6 13 -3 13 -37 0 -24 9 -23 26 3 10 18 15 19 22 8 5
-8 9 -9 9 -3 0 6 -9 19 -20 29 -14 13 -17 22 -10 31 8 8 7 13 -2 16 -10 4 -10
8 1 21 18 22 22 21 45 -10 13 -17 14 -24 5 -19 -8 4 -6 1 4 -7 14 -11 15 -16
5 -20 -7 -3 -3 -4 9 -4 15 1 19 5 13 11 -6 6 -10 15 -10 20 0 6 5 5 12 -2 7
-7 17 -12 22 -12 6 0 4 5 -4 10 -10 6 -11 10 -2 10 6 0 12 5 12 11 0 8 -6 7
-17 -2 -10 -8 -14 -9 -10 -2 4 6 -1 18 -13 26 -11 7 -17 17 -13 20 3 4 12 -1
20 -11 8 -9 12 -11 8 -5 -4 9 0 11 12 7 15 -5 16 -4 3 6 -13 10 -13 11 0 7 8
-2 14 -12 12 -22 -2 -11 1 -14 8 -10 6 4 9 13 7 19 -3 7 1 13 9 13 8 0 14 -3
14 -7 0 -4 7 -7 16 -7 15 0 15 1 0 12 -17 13 -12 26 7 21 7 -2 8 -1 3 2 -4 2
-2 9 5 14 11 8 10 9 -3 5 -9 -3 -22 2 -30 11 -12 16 -11 16 6 2 18 -14 19 -14
5 7 -10 16 -16 19 -22 10 -6 -8 -7 -7 -4 3 3 9 -1 24 -9 35 -11 14 -11 22 -2
34 7 9 8 13 4 9 -5 -4 -15 -3 -22 3 -8 7 -14 6 -20 -2 -5 -8 -3 -10 7 -4 8 5
11 5 7 1 -3 -4 -9 -7 -13 -6 -3 0 -14 -7 -23 -18 -9 -10 -12 -11 -7 -2 8 12 7
13 -5 5 -9 -5 -4 1 10 14 14 13 18 20 10 16 -12 -6 -13 -5 -3 5 9 9 9 19 2 33
-9 15 -8 18 3 12 7 -3 5 0 -5 8 -10 9 -14 18 -8 21 5 3 12 0 15 -6 3 -7 3 3 0
22 -4 31 -2 33 9 18 14 -17 27 -14 27 5 0 6 -3 7 -7 4 -10 -10 -32 13 -27 27
3 7 -2 19 -11 26 -8 7 -15 17 -15 23 0 6 7 2 15 -9 13 -18 14 -18 8 4 -4 16
-10 21 -22 17 -18 -7 -11 0 33 33 15 12 33 19 39 15 6 -3 7 -1 3 5 -4 6 -14 8
-23 5 -10 -4 -14 -2 -10 4 4 6 0 16 -8 23 -8 7 -13 15 -10 19 6 10 -27 7 -44
-3 -8 -5 -16 -4 -21 4 -5 8 -9 7 -14 -5 -3 -9 -11 -13 -17 -10 -6 4 -8 13 -6
19 3 7 -1 13 -8 13 -7 0 -11 -6 -8 -13 2 -6 -1 -15 -6 -19 -6 -3 -9 -11 -5
-16 3 -5 10 -7 15 -4 5 4 9 1 9 -4 0 -21 2 -26 12 -38 7 -9 7 -13 -1 -13 -7 0
-9 -5 -6 -11 5 -6 13 -3 22 10 8 12 19 19 24 15 6 -3 3 -12 -8 -20 -15 -11
-15 -13 -2 -8 25 8 35 -17 14 -33 -11 -7 -13 -13 -7 -13 8 0 11 -11 7 -32 -3
-21 -2 -28 3 -20 7 11 10 10 15 -3 5 -10 3 -14 -5 -9 -7 5 -8 3 -3 -6 6 -9 4
-11 -6 -5 -7 5 -4 -4 9 -19 12 -16 22 -33 22 -38 0 -6 -8 0 -18 13 -13 15 -21
19 -26 10 -5 -7 -2 -10 6 -9 7 2 12 -3 11 -9 -2 -7 1 -13 5 -13 4 0 8 -9 9
-21 2 -21 2 -21 -20 -3 -19 16 -20 16 -8 2 9 -12 10 -18 2 -18 -6 0 -11 5 -11
12 0 6 -3 8 -7 4 -5 -4 1 -14 11 -22 19 -13 11 -20 -17 -15 -5 1 -6 -3 -2 -9
3 -6 11 -8 16 -4 6 3 19 -2 30 -12 21 -19 27 -43 6 -25 -8 6 -17 8 -20 4 -4
-3 -15 1 -25 10 -15 14 -19 14 -19 3 0 -8 3 -15 6 -14 20 2 19 -6 -3 -35 -14
-19 -23 -37 -18 -42 4 -5 1 -5 -6 -1 -11 7 -11 4 -1 -12 7 -12 17 -18 22 -15
5 3 4 9 -3 13 -8 5 -8 10 -2 14 5 3 12 -1 16 -9 3 -8 1 -17 -5 -21 -5 -3 -7
-14 -4 -25 4 -11 2 -19 -5 -19 -6 0 -9 4 -6 8 2 4 0 14 -6 22 -8 12 -8 11 -3
-5 3 -11 2 -16 -2 -11 -4 4 -8 17 -8 29 0 11 -7 22 -15 24 -12 4 -13 3 -1 -5
7 -5 10 -15 6 -21 -4 -7 -1 -18 5 -26 12 -15 11 -16 -11 -19 -6 0 -16 -8 -22
-16 -7 -8 -19 -16 -27 -18 -11 -2 -10 1 3 12 11 9 14 17 8 21 -7 4 -6 14 4 29
13 19 13 23 1 23 -8 0 -12 -7 -9 -16 4 -10 0 -9 -10 4 -8 11 -13 24 -9 30 3 5
-4 2 -15 -8 -11 -9 -23 -14 -27 -10 -4 5 -13 8 -18 8 -6 0 -13 6 -16 13 -2 7
2 10 11 6 8 -3 18 -1 21 5 4 5 18 8 32 5 19 -3 24 -1 19 8 -4 7 2 3 12 -8 17
-19 22 -20 38 -8 14 10 15 14 4 14 -11 0 -12 2 0 9 9 6 10 11 2 15 -15 10 -4
26 13 20 17 -6 31 12 16 21 -7 4 -3 17 10 34 10 16 17 31 13 35 -3 3 2 14 11
25 11 12 14 21 7 26 -8 4 -8 12 -1 25 7 13 7 21 0 25 -6 4 -8 11 -5 16 4 5 3
15 -2 22 -11 18 -12 36 -2 43 15 9 10 22 -8 19 -23 -3 -53 23 -46 41 3 8 0 15
-6 15 -13 2 -29 6 -36 9 -3 1 -10 3 -15 4 -6 0 -15 8 -20 16 -5 8 -10 11 -10
7 0 -5 -12 1 -26 12 -15 11 -30 19 -34 16 -4 -3 -13 2 -20 10 -7 8 -16 12 -21
9 -5 -3 -9 -1 -9 4 0 5 -6 9 -12 10 -15 1 -52 10 -55 12 -2 2 -9 3 -15 4 -7 1
-12 8 -10 15 2 8 -3 11 -12 8 -9 -4 -18 -2 -21 3 -3 5 -11 7 -18 5 -7 -3 -21
8 -32 24 -12 18 -22 26 -26 19 -4 -6 -12 -7 -20 -3 -9 6 -8 10 6 15 13 5 20
17 20 38 1 22 -2 28 -11 22 -13 -12 -41 17 -39 40 1 21 -17 31 -32 18 -7 -6
-13 -9 -14 -7 0 2 -2 12 -4 22 -2 10 -11 27 -21 38 -13 15 -15 22 -6 31 7 7
12 8 12 4 0 -5 7 -3 15 4 8 7 15 9 15 5 0 -4 7 -2 15 5 8 7 12 17 9 24 -3 6 1
3 9 -7 13 -16 15 -16 21 -2 4 11 2 14 -6 9 -7 -5 -9 -2 -5 9 4 11 2 14 -9 10
-7 -3 -14 -1 -14 4 0 20 13 22 35 5 l23 -17 -20 -27z m417 -307 c-3 -2 -11 1
-18 7 -8 7 -18 8 -22 4 -5 -4 -5 -1 -1 5 5 10 11 10 26 1 11 -7 17 -14 15 -17z
m141 -94 c1 -10 -12 -26 -29 -39 -18 -12 -29 -18 -25 -13 4 4 3 14 -3 22 -9
10 -15 10 -25 2 -11 -9 -19 -7 -12 4 6 8 -25 46 -34 41 -7 -4 -8 -2 -4 5 6 9
11 9 21 1 9 -7 15 -8 19 -1 4 6 13 8 20 5 8 -3 17 0 21 6 9 15 47 -10 51 -33z
m-20 -143 c-2 -19 -9 -40 -16 -47 -12 -10 -12 -9 -2 4 9 12 9 20 -1 35 -11 17
-12 27 -8 58 0 5 7 3 15 -3 8 -7 13 -26 12 -47z m41 -150 c-3 -4 -1 -16 5 -28
7 -11 11 -25 10 -30 -2 -5 7 -19 18 -31 26 -27 14 -39 -40 -40 -53 -1 -68 -14
-40 -35 13 -10 18 -20 12 -23 -5 -4 -17 5 -27 19 -10 16 -22 23 -31 20 -9 -3
-12 -1 -9 4 6 9 -8 14 -28 11 -4 -1 0 10 9 24 21 33 50 49 60 34 4 -7 9 -8 17
0 7 7 7 14 -2 24 -9 11 -8 17 4 27 8 7 15 9 15 4 0 -5 5 -1 11 9 5 9 13 17 16
17 4 0 3 -3 0 -6z m-612 -36 c5 4 6 3 3 -3 -5 -9 22 -44 29 -37 10 9 22 -1 20
-18 -1 -11 -5 -20 -10 -20 -5 0 -6 8 -2 18 5 13 3 14 -6 5 -6 -6 -8 -16 -5
-21 9 -15 66 -8 77 9 8 13 11 6 8 -17 -2 -14 26 -22 39 -12 9 8 16 8 24 0 6
-6 18 -8 27 -3 13 6 46 7 66 2 3 0 7 0 10 2 2 1 12 -8 20 -21 9 -12 20 -20 25
-17 5 3 12 1 15 -5 5 -8 11 -7 21 1 13 10 18 6 15 -13 0 -5 3 -8 7 -8 11 0 12
-39 1 -45 -5 -4 -7 -11 -4 -16 4 -5 -1 -12 -10 -15 -12 -5 -13 -10 -4 -20 6
-8 15 -12 19 -9 4 3 10 -1 13 -8 5 -14 -26 -17 -39 -4 -4 4 -13 2 -21 -4 -9
-9 -17 -8 -27 0 -11 10 -17 8 -25 -6 -6 -10 -11 -13 -11 -6 0 6 -11 10 -24 9
-17 -2 -23 1 -19 10 6 17 -1 17 -35 1 -24 -12 -43 -14 -57 -7 -3 1 -9 3 -14 4
-19 2 -21 14 -4 27 9 8 14 9 10 2 -8 -13 11 -12 33 2 23 15 39 14 33 -1 -3 -7
-8 -13 -11 -12 -21 2 -32 -3 -26 -13 4 -8 9 -7 15 2 5 8 9 10 9 6 0 -4 9 -3
20 3 23 12 16 44 -9 36 -11 -4 -10 -2 3 9 24 18 32 19 34 3 3 -34 10 -53 18
-48 5 3 8 9 6 13 -1 5 1 6 6 3 11 -6 9 25 -3 43 -6 10 -4 12 4 6 10 -5 9 -2 0
13 -7 12 -17 18 -22 15 -5 -3 -4 -9 3 -13 8 -5 8 -10 2 -14 -14 -8 -23 19 -10
32 6 6 7 16 1 27 -9 15 -11 15 -23 0 -11 -13 -10 -15 4 -9 17 7 23 -11 6 -21
-6 -4 -8 -11 -5 -16 3 -5 -1 -6 -10 -3 -14 6 -14 8 2 21 17 13 17 13 -2 4 -17
-8 -21 -6 -21 9 0 10 4 17 7 14 4 -2 11 1 15 7 5 8 3 9 -6 4 -9 -6 -11 -4 -5
4 6 10 3 11 -13 2 -32 -17 -37 -33 -16 -50 26 -23 27 -37 1 -38 -12 0 -16 1
-9 4 6 3 12 9 12 15 0 7 -5 7 -13 -1 -10 -8 -14 -7 -14 4 0 8 5 11 11 8 6 -4
5 1 -3 10 -11 14 -11 20 0 35 7 9 9 14 5 10 -5 -4 -16 -2 -24 5 -13 10 -15 9
-8 -3 4 -8 1 -7 -7 3 -14 17 -15 17 -22 0 -11 -25 -12 -46 -2 -60 5 -7 5 -18
1 -24 -5 -8 -3 -9 7 -4 11 7 11 5 -1 -11 -22 -29 -24 -30 -18 -13 5 12 -1 15
-26 15 -21 -1 -31 -6 -31 -16 0 -8 7 -15 15 -15 8 0 20 -4 27 -8 6 -4 14 -3
18 3 3 5 10 10 16 10 5 0 4 -9 -3 -19 -7 -11 -17 -17 -23 -13 -5 3 -17 7 -25
9 -8 1 -22 11 -31 22 -16 19 -18 19 -24 3 -6 -16 -7 -16 -20 2 -8 10 -12 23
-9 27 3 5 0 10 -5 10 -21 3 -26 4 -38 12 -8 5 -13 3 -13 -4 0 -9 -4 -9 -15 1
-8 6 -18 9 -23 6 -5 -3 -8 4 -7 15 1 11 7 24 14 28 9 6 8 10 -6 15 -16 7 -16
9 6 25 16 13 20 20 12 25 -9 6 -9 11 0 22 13 16 44 19 34 4 -4 -6 -11 -7 -17
-4 -7 4 -8 2 -4 -5 4 -6 12 -9 17 -6 5 4 9 1 9 -5 0 -7 -7 -10 -17 -6 -11 4
-8 -2 7 -14 15 -12 18 -18 8 -14 -10 3 -18 1 -18 -4 0 -6 9 -9 20 -7 12 2 18
0 15 -6 -4 -5 -12 -6 -18 -2 -7 4 -7 0 1 -10 8 -9 10 -22 6 -28 -4 -8 -3 -9 5
-5 6 4 10 3 9 -2 -2 -6 1 -10 6 -10 5 0 13 -6 17 -14 7 -11 9 -10 9 1 0 9 6 7
19 -8 11 -12 22 -18 25 -13 3 6 -1 12 -8 15 -10 4 -13 15 -10 31 2 14 0 28 -6
31 -7 4 -6 14 2 28 15 28 18 58 5 50 -6 -4 -7 -1 -2 7 6 9 4 11 -5 5 -8 -5
-11 -4 -6 3 4 7 -3 9 -21 6 -21 -3 -24 -2 -13 6 13 9 13 10 0 10 -13 0 -13 1
0 11 13 9 13 10 0 6 -8 -2 -15 -9 -15 -14 0 -6 -3 -15 -7 -19 -5 -4 -8 -2 -8
4 0 7 -3 11 -7 11 -20 -3 -22 3 -7 26 l16 25 28 -20 c15 -11 31 -16 35 -12z
m-40 -58 c-3 -5 0 -12 6 -16 8 -4 7 -9 -2 -15 -12 -7 -12 -9 0 -9 8 0 11 -6 7
-16 -3 -9 -2 -12 5 -9 6 4 8 13 5 21 -3 7 -1 16 4 19 6 4 10 12 10 18 0 8 -3
8 -9 -2 -5 -7 -11 -9 -14 -4 -3 5 -2 15 2 22 7 10 12 8 24 -9 14 -20 14 -25 1
-45 -9 -15 -11 -25 -5 -29 19 -12 8 -42 -16 -42 -12 0 -20 2 -18 4 2 3 0 13
-5 23 -7 12 -6 20 1 24 7 5 6 12 -3 23 -12 15 -13 25 -9 55 0 5 6 5 11 2 6 -4
8 -10 5 -15z m135 -14 c0 -6 -5 -4 -10 4 -7 11 -10 11 -10 2 0 -8 -5 -10 -12
-6 -9 6 -9 9 0 12 7 2 9 9 5 15 -4 7 1 6 10 -2 9 -7 17 -19 17 -25z m42 -61
c2 3 4 -11 3 -30 -2 -38 16 -61 37 -49 7 4 4 -2 -6 -14 -16 -18 -22 -20 -34
-9 -8 6 -17 11 -19 10 -1 -2 -2 0 0 5 1 4 5 6 10 5 12 -5 8 7 -11 28 -15 16
-19 38 -13 68 1 2 7 -2 14 -8 8 -6 16 -9 19 -6z m48 -15 c0 -5 -4 -10 -10 -10
-5 0 -10 5 -10 10 0 6 5 10 10 10 6 0 10 -4 10 -10z m324 -59 c3 -5 -1 -14 -9
-21 -12 -10 -14 -8 -10 8 5 26 -15 34 -40 16 -10 -8 -13 -14 -7 -14 7 0 12 -4
12 -8 0 -11 -47 -9 -57 2 -4 5 -3 6 4 2 6 -3 19 4 27 16 9 12 16 18 16 13 0
-5 5 -4 12 3 11 11 41 2 52 -17z m-251 -17 c-4 -12 -8 -13 -14 -3 -9 15 -2 32
11 24 5 -3 6 -13 3 -21z m-203 -4 c0 -5 -4 -10 -10 -10 -5 0 -10 5 -10 10 0 6
5 10 10 10 6 0 10 -4 10 -10z m24 -6 c3 -8 2 -12 -4 -9 -6 3 -10 10 -10 16 0
14 7 11 14 -7z"/>
<path d="M1780 2700 c-6 -11 -15 -18 -20 -15 -5 3 -11 1 -15 -4 -3 -6 3 -8 15
-6 11 2 24 -3 29 -13 5 -9 13 -14 17 -10 4 5 12 3 19 -2 8 -7 19 0 35 23 13
17 19 29 15 25 -4 -4 -15 -2 -23 4 -19 17 -42 19 -36 4 3 -7 -2 -13 -11 -13
-9 0 -14 6 -11 14 8 20 -2 15 -14 -7z m66 -25 c-9 -7 -12 -16 -8 -21 4 -4 0
-3 -9 4 -9 6 -18 10 -21 7 -3 -3 -11 1 -17 9 -11 13 -9 15 9 11 12 -2 23 2 27
11 4 12 8 12 20 2 13 -10 13 -13 -1 -23z"/>
<path d="M1825 2680 c-3 -6 1 -7 9 -4 18 7 21 14 7 14 -6 0 -13 -4 -16 -10z"/>
<path d="M1895 2709 c-3 -4 3 -6 12 -4 10 1 23 -2 30 -7 7 -5 14 -5 18 2 7 12
8 11 -28 14 -15 2 -30 0 -32 -5z"/>
<path d="M1936 2627 c3 -10 9 -15 12 -12 3 3 0 11 -7 18 -10 9 -11 8 -5 -6z"/>
<path d="M1655 2680 c-4 -6 -10 -8 -15 -5 -5 3 -14 -5 -20 -17 -10 -21 -10
-22 3 -5 11 14 16 15 20 5 4 -11 6 -11 6 0 1 7 5 11 9 8 5 -3 9 1 9 9 0 18 -3
19 -12 5z"/>
<path d="M1989 2673 c-12 -16 -12 -17 2 -6 9 7 20 9 24 5 5 -4 5 -1 1 6 -9 16
-11 15 -27 -5z"/>
<path d="M2034 2678 c-3 -5 -2 -7 3 -6 4 2 18 -7 31 -19 12 -13 18 -23 12 -23
-15 0 -12 -17 3 -23 9 -3 13 2 12 16 -1 12 2 28 8 35 7 9 7 16 -1 24 -9 9 -12
9 -12 0 0 -7 -7 -12 -16 -12 -8 0 -13 4 -10 8 3 5 -2 9 -10 9 -8 0 -17 -4 -20
-9z m61 -18 c-3 -5 -12 -10 -18 -10 -7 0 -6 4 3 10 19 12 23 12 15 0z"/>
<path d="M1549 2618 c-13 -17 -18 -28 -12 -25 7 4 17 -1 23 -10 10 -16 11 -16
6 -1 -3 10 -1 20 4 23 7 4 11 45 4 45 -2 0 -13 -14 -25 -32z m12 -11 c-10 -9
-11 -8 -5 6 3 10 9 15 12 12 3 -3 0 -11 -7 -18z"/>
<path d="M1744 2609 c-2 -5 -11 -6 -19 -2 -18 6 -19 -5 -2 -27 6 -9 3 -6 -9 6
-21 21 -21 21 -33 2 -7 -11 -8 -17 -2 -14 5 4 22 -10 37 -29 25 -34 28 -35 45
-19 18 16 17 40 -1 29 -18 -11 -17 21 1 41 16 17 17 21 4 21 -9 0 -18 -4 -21
-8z m16 -3 c0 -2 -6 -9 -14 -15 -11 -9 -16 -9 -22 0 -4 7 -3 9 4 5 6 -3 13 -2
17 4 6 10 15 14 15 6z m3 -59 c7 4 6 -1 -2 -11 -8 -9 -17 -13 -20 -9 -4 4 -17
21 -31 38 l-25 29 33 -27 c19 -15 39 -24 45 -20z"/>
<path d="M1966 2602 c-2 -4 -1 -14 3 -21 6 -10 10 -9 14 3 6 16 -8 32 -17 18z"/>
<path d="M1489 2563 c-13 -16 -12 -17 4 -4 9 7 17 15 17 17 0 8 -8 3 -21 -13z"/>
<path d="M1917 2562 c-15 -17 -15 -18 8 -18 17 0 21 3 15 11 -6 7 -7 15 -3 18
3 4 4 7 1 7 -3 0 -12 -8 -21 -18z"/>
<path d="M1469 2517 c-1 -4 -2 -10 -3 -14 -1 -5 -5 -13 -9 -20 -4 -6 -2 -15 4
-19 7 -4 9 -3 5 4 -3 6 2 15 11 21 14 8 16 12 6 22 -7 7 -14 10 -14 6z"/>
<path d="M1574 2475 c2 -7 0 -17 -5 -22 -6 -6 -5 -14 5 -22 12 -10 14 -9 11 6
-1 10 1 25 6 34 5 11 3 16 -7 16 -8 0 -13 -6 -10 -12z"/>
<path d="M1630 2335 c-7 -8 -17 -12 -22 -9 -6 4 -3 -5 6 -18 9 -14 14 -28 11
-31 -3 -4 1 -2 8 3 6 6 12 24 13 40 0 35 0 35 -16 15z m7 -27 c2 -17 0 -19 -7
-8 -5 8 -6 18 -4 22 8 12 10 10 11 -14z"/>
<path d="M1491 2300 c-19 -16 -27 -18 -38 -8 -8 6 -13 7 -12 2 1 -5 0 -11 -1
-14 -1 -3 -3 -13 -5 -23 -3 -15 -1 -16 11 -6 8 6 14 8 14 4 0 -4 6 -2 13 4 8
6 18 7 22 3 5 -4 5 -1 1 6 -5 8 -1 21 10 33 22 24 16 24 -15 -1z m-16 -29 c-9
-8 -36 -10 -30 -2 2 4 11 8 20 8 8 0 13 -3 10 -6z"/>
<path d="M1615 2240 c-4 -6 -12 -7 -18 -3 -7 4 -7 0 1 -10 8 -9 17 -16 20 -15
19 2 33 -3 28 -10 -3 -5 1 -9 9 -9 11 0 9 7 -6 29 -23 31 -25 32 -34 18z m19
-8 c3 -5 -1 -9 -9 -9 -8 0 -12 4 -9 9 3 4 7 8 9 8 2 0 6 -4 9 -8z"/>
<path d="M1454 2185 c2 -14 25 -44 27 -34 0 2 2 12 4 22 2 11 1 16 -2 13 -4
-3 -12 -1 -19 5 -9 7 -12 6 -10 -6z"/>
<path d="M1748 2155 c11 -15 19 -19 24 -12 8 14 -5 30 -27 33 -12 2 -12 -2 3
-21z"/>
<path d="M1833 2125 c0 -8 4 -12 9 -9 5 3 6 10 3 15 -9 13 -12 11 -12 -6z"/>
<path d="M1513 2104 c15 -17 25 -33 22 -37 -3 -4 -2 -5 2 -2 3 3 12 0 20 -6
10 -9 13 -8 13 0 0 7 5 9 12 5 7 -4 8 -3 4 5 -4 6 -12 8 -18 5 -5 -3 -26 9
-46 27 -34 32 -35 32 -9 3z"/>
<path d="M1943 2065 c0 -8 3 -13 5 -10 3 3 11 0 18 -6 9 -7 14 -6 20 3 4 7 3
10 -1 5 -5 -4 -16 0 -25 8 -15 13 -17 13 -17 0z"/>
<path d="M1811 2063 c-1 -6 4 -15 9 -18 6 -4 7 -12 4 -18 -4 -7 -3 -8 1 -4 12
10 16 39 5 32 -5 -3 -11 1 -13 7 -4 9 -6 10 -6 1z"/>
<path d="M2081 1996 c-6 -8 -14 -23 -16 -34 -3 -16 1 -20 17 -17 11 2 26 9 32
15 7 5 16 6 20 2 4 -4 12 -7 17 -7 5 0 10 -4 10 -10 1 -5 14 -26 30 -46 16
-20 25 -39 21 -43 -4 -4 -2 -7 3 -6 29 6 30 -3 4 -31 -16 -17 -29 -35 -29 -39
0 -10 50 -7 67 3 6 4 14 1 16 -5 4 -9 6 -10 6 -1 1 6 -4 15 -9 18 -7 4 -7 13
0 25 9 16 5 22 -21 35 -23 12 -28 19 -20 29 14 16 -5 37 -27 29 -9 -4 -13 -2
-9 4 3 5 -7 23 -23 38 -17 16 -30 25 -30 20 0 -5 -11 1 -23 14 -21 18 -26 20
-36 7z m34 -27 c-3 -4 -13 -5 -22 -2 -12 5 -14 3 -8 -7 5 -9 4 -11 -3 -6 -9 5
-9 13 -1 27 8 16 13 18 25 9 7 -7 11 -16 9 -21z m109 -80 c-3 -5 -10 -7 -15
-3 -5 3 -7 10 -3 15 3 5 10 7 15 3 5 -3 7 -10 3 -15z m41 -57 c-6 -4 -11 -16
-10 -26 0 -15 -7 -20 -27 -21 -15 -1 -25 2 -22 7 3 4 10 5 16 2 7 -5 9 -1 5 9
-4 10 0 20 11 26 20 12 42 15 27 3z"/>
<path d="M2270 1738 c20 -17 23 -37 9 -54 -9 -11 -9 -14 0 -14 7 0 10 -4 6 -9
-3 -5 -1 -12 4 -15 5 -4 12 -2 15 3 4 5 2 12 -3 16 -6 3 -8 19 -6 35 3 23 -1
33 -18 41 -19 8 -20 8 -7 -3z"/>
<path d="M2289 1623 c0 -5 -3 -19 -5 -32 -2 -14 -2 -22 1 -19 8 8 17 58 10 58
-3 0 -5 -3 -6 -7z"/>
<path d="M2015 2629 c-4 -5 1 -19 10 -29 9 -10 14 -23 11 -29 -4 -5 -2 -12 3
-15 20 -12 20 13 1 37 -22 28 -26 42 -8 31 7 -4 8 -3 4 4 -9 15 -13 15 -21 1z"/>
<path d="M2216 2619 c5 -9 2 -10 -9 -6 -9 3 -19 2 -22 -3 -4 -7 -13 -6 -25 0
-27 15 -44 -10 -25 -38 10 -14 12 -23 5 -27 -8 -5 -7 -11 1 -21 13 -16 -2 -19
-17 -4 -6 6 -10 3 -11 -9 -2 -21 43 -68 54 -58 3 4 1 7 -6 7 -6 0 4 14 24 31
19 17 33 35 30 39 -3 4 2 13 10 20 15 13 10 35 -6 25 -5 -4 -9 -1 -9 5 0 6 -5
8 -11 4 -8 -4 -7 -9 2 -15 8 -5 10 -9 5 -9 -5 0 -18 8 -28 17 -17 15 -20 15
-28 3 -6 -9 -10 -10 -10 -3 0 20 20 26 37 11 11 -8 14 -9 10 -1 -5 8 -1 11 14
8 12 -3 28 -1 35 3 10 6 9 11 -7 20 -16 10 -19 10 -13 1z m1 -58 c17 13 17 13
0 -7 -9 -11 -15 -23 -12 -26 3 -3 -8 -17 -26 -32 -24 -21 -34 -24 -45 -15 -8
6 -14 17 -14 23 0 8 2 8 8 -1 5 -8 12 -8 25 2 16 11 16 13 2 19 -10 4 -13 11
-8 18 4 7 8 16 9 21 1 4 2 10 3 14 0 3 10 -2 21 -12 17 -15 22 -16 37 -4z"/>
<path d="M2173 2556 c12 -17 8 -26 -10 -20 -15 5 -15 3 1 -7 18 -11 18 -12 -5
-31 -20 -16 -20 -17 -3 -9 38 18 46 36 27 57 -10 11 -15 15 -10 10z"/>
<path d="M1640 2540 c13 -9 13 -10 0 -10 -13 0 -13 -1 0 -10 9 -5 19 -5 27 2
16 13 10 21 -20 25 -17 2 -19 1 -7 -7z"/>
<path d="M1514 2534 c-18 -14 -18 -15 4 -4 12 6 22 13 22 15 0 8 -5 6 -26 -11z"/>
<path d="M1517 2493 c-4 -3 -2 -13 5 -20 9 -11 9 -16 -3 -23 -8 -5 -14 -14
-14 -20 0 -6 -11 -20 -25 -31 -19 -16 -20 -18 -4 -10 23 11 51 41 38 41 -4 0
1 6 11 14 15 11 17 17 7 28 -6 8 -9 18 -5 21 3 4 4 7 1 7 -2 0 -8 -3 -11 -7z"/>
<path d="M1530 2422 c0 -5 9 -17 20 -27 11 -10 20 -14 20 -10 0 5 6 0 14 -11
8 -10 18 -16 22 -11 4 4 2 7 -4 7 -7 0 -12 5 -12 11 0 6 6 9 13 6 8 -3 14 1
14 8 0 10 -5 11 -16 5 -9 -4 -20 -8 -26 -8 -16 0 -35 19 -29 29 3 5 0 9 -5 9
-6 0 -11 -4 -11 -8z"/>
<path d="M1465 2351 c-3 -5 0 -13 6 -17 7 -4 9 -3 5 4 -3 5 0 13 6 15 9 4 10
6 1 6 -6 1 -14 -3 -18 -8z"/>
<path d="M1546 2243 c-4 -5 -12 -9 -17 -9 -5 -1 -12 -2 -15 -3 -4 0 -1 -8 6
-16 8 -10 9 -15 2 -15 -6 0 -16 8 -21 18 -6 9 -11 12 -11 5 0 -6 8 -18 19 -25
10 -7 17 -21 15 -31 -2 -14 1 -15 10 -8 7 6 16 8 20 4 4 -4 4 0 0 10 -3 9 -10
17 -16 17 -5 0 -7 4 -3 10 3 5 13 6 23 3 14 -5 14 -3 -2 9 -19 15 -19 15 0 26
10 6 14 12 8 12 -6 0 -14 -3 -18 -7z"/>
<path d="M1680 2170 c-8 -5 -16 -14 -16 -20 -1 -5 -2 -13 -3 -17 0 -4 -8 3
-17 15 -16 23 -17 23 -36 5 -11 -10 -23 -16 -26 -13 -3 3 -6 -3 -8 -12 -3 -21
21 -44 31 -28 10 16 28 12 22 -5 -4 -8 -2 -17 3 -20 6 -4 10 -11 10 -16 0 -6
-4 -8 -9 -4 -6 3 -8 -4 -6 -16 5 -24 35 -62 43 -54 3 3 11 0 18 -6 8 -7 14 -7
19 1 11 18 24 11 20 -11 -3 -12 -2 -19 2 -15 3 3 12 1 18 -4 9 -7 16 -6 24 4
9 10 8 16 -4 26 -12 10 -12 15 2 36 15 23 14 24 -3 18 -16 -6 -15 -2 6 22 14
15 18 24 10 18 -8 -6 -19 -10 -25 -9 -19 2 -55 26 -55 37 0 7 5 7 14 -1 18
-15 16 3 -4 39 -8 14 -13 28 -12 33 3 9 0 9 -18 -3z m-45 -30 c-9 -14 20 -18
38 -5 14 10 15 14 5 18 -8 3 -8 6 -2 6 7 1 19 -11 29 -25 9 -15 12 -24 7 -20
-6 3 -14 1 -18 -5 -9 -15 45 -61 60 -52 6 3 5 0 -1 -7 -9 -9 -9 -17 -2 -26 7
-8 7 -14 -1 -19 -8 -5 -6 -13 5 -25 10 -11 12 -20 6 -24 -15 -9 -31 21 -34 66
-1 10 -7 20 -14 22 -9 4 -10 -1 -3 -19 10 -26 -12 -57 -25 -35 -3 6 -10 8 -15
5 -15 -9 -41 37 -29 51 6 7 7 19 3 26 -5 7 -9 18 -10 23 0 6 -2 16 -2 24 -2
11 -6 10 -22 -4 -11 -10 -20 -16 -21 -14 0 2 -2 12 -4 22 -2 9 0 15 5 12 4 -3
13 2 20 10 12 15 35 11 25 -5z"/>
<path d="M1604 2128 l-19 -23 23 19 c21 18 27 26 19 26 -2 0 -12 -10 -23 -22z"/>
<path d="M1665 2120 c-4 -6 -10 -8 -14 -6 -12 8 -6 -33 7 -46 13 -13 16 -29 5
-27 -20 3 -23 -3 -13 -21 6 -11 15 -18 20 -15 5 3 11 1 15 -5 4 -6 11 -8 16
-4 6 3 6 11 1 17 -7 11 -8 22 -3 42 0 3 11 1 24 -5 13 -7 9 -1 -11 15 -23 19
-31 32 -27 46 7 20 -9 27 -20 9z m9 -13 c-3 -8 2 -20 10 -27 9 -7 13 -17 10
-22 -3 -5 -14 -2 -25 8 -14 13 -16 21 -8 35 11 22 21 26 13 6z m10 -75 c-5 -4
-12 -11 -15 -15 -3 -5 -9 -2 -12 5 -3 9 3 14 15 15 11 1 16 -1 12 -5z"/>
<path d="M1660 2086 c0 -2 8 -10 18 -17 15 -13 16 -12 3 4 -13 16 -21 21 -21
13z"/>
<path d="M1886 2022 c-3 -5 1 -9 9 -9 8 0 12 4 9 9 -3 4 -7 8 -9 8 -2 0 -6 -4
-9 -8z"/>
<path d="M1864 1944 l-18 -26 -18 24 c-18 22 -19 22 -9 1 16 -33 24 -34 56 -9
18 15 24 25 17 30 -6 4 -19 -5 -28 -20z"/>
<path d="M1950 1941 c0 -7 -4 -10 -9 -7 -4 3 -18 -5 -30 -18 -19 -20 -20 -24
-6 -36 8 -7 15 -9 15 -4 0 5 7 0 15 -10 8 -11 15 -14 15 -8 0 7 5 12 10 12 6
0 9 -5 8 -12 -2 -7 6 -12 17 -12 22 0 39 -21 31 -35 -3 -5 2 -15 12 -22 15
-12 16 -12 7 1 -6 8 -10 24 -10 35 0 11 -8 26 -18 34 -13 9 -16 16 -8 24 17
17 13 30 -6 22 -13 -4 -15 -3 -7 5 6 6 20 13 30 14 11 2 18 6 17 9 -2 4 -3 10
-3 13 0 3 -10 -2 -22 -10 -20 -14 -24 -14 -40 1 -12 10 -18 12 -18 4z m25 -31
c1 -8 7 -14 15 -12 10 2 11 0 2 -11 -8 -9 -8 -17 -1 -24 6 -6 5 -10 -5 -10 -8
0 -14 5 -13 11 1 6 -5 12 -13 12 -8 1 -18 3 -22 4 -9 3 -25 7 -35 9 -3 0 1 9
11 20 20 22 61 23 61 1z"/>
<path d="M1920 1904 c-14 -15 21 -14 37 2 11 10 9 12 -7 11 -12 -1 -25 -6 -30
-13z"/>
<path d="M2141 1816 c-8 -10 -9 -16 -1 -21 6 -3 7 -11 4 -17 -4 -7 -2 -8 5 -4
8 6 9 12 2 20 -7 9 -7 16 1 24 7 7 9 12 6 12 -3 0 -11 -6 -17 -14z"/>
<path d="M2075 1780 c3 -5 8 -10 11 -10 2 0 4 5 4 10 0 6 -5 10 -11 10 -5 0
-7 -4 -4 -10z"/>
<path d="M2064 1736 c1 -8 5 -18 8 -22 4 -3 5 1 4 10 -1 8 -5 18 -8 22 -4 3
-5 -1 -4 -10z"/>
<path d="M2170 1735 c-7 -8 -17 -12 -23 -8 -6 3 -7 1 -3 -6 4 -6 11 -9 16 -6
5 3 12 1 15 -5 7 -12 -13 -42 -24 -36 -3 2 -6 -15 -7 -39 0 -24 3 -42 7 -39 4
2 10 1 13 -4 14 -23 96 4 96 32 0 6 -4 5 -9 -3 -5 -8 -11 -9 -15 -3 -3 6 -2
13 3 16 15 10 5 41 -12 38 -11 -2 -15 3 -12 18 2 12 -2 23 -10 27 -8 3 -13 9
-10 13 10 16 -13 20 -25 5z m15 -4 c-3 -6 0 -13 8 -18 7 -4 13 -16 14 -25 2
-39 3 -41 17 -29 11 10 14 9 12 -3 -1 -9 -5 -19 -9 -22 -4 -4 -2 -13 4 -20 7
-8 6 -14 -2 -20 -8 -4 -9 -3 -5 4 4 7 3 12 -3 12 -5 0 -12 -4 -15 -9 -7 -10
-25 -9 -43 2 -14 9 -13 47 1 47 5 0 6 3 3 7 -4 3 0 15 9 25 13 13 14 21 5 31
-6 8 -8 17 -4 20 10 10 15 8 8 -2z"/>
<path d="M2183 1678 c-8 -14 -11 -24 -15 -52 -4 -28 28 -28 47 0 8 13 12 24 8
23 -23 -4 -31 3 -28 21 4 23 0 26 -12 8z m20 -54 c-7 -19 -10 -18 -16 5 -3 13
-1 18 9 14 7 -2 10 -11 7 -19z"/>
<path d="M2210 1513 c13 -18 30 -35 39 -38 13 -4 13 -3 -1 8 -14 11 -15 16 -5
27 9 10 9 11 -1 5 -8 -4 -22 1 -34 12 -19 16 -19 15 2 -14z"/>
<path d="M2070 1520 c0 -5 5 -10 10 -10 6 0 10 5 10 10 0 6 -4 10 -10 10 -5 0
-10 -4 -10 -10z"/>
<path d="M2040 1485 c-7 -9 -20 -13 -28 -10 -12 4 -12 2 -4 -8 7 -8 9 -17 5
-20 -3 -4 -4 -7 -2 -7 3 0 15 14 27 30 23 31 24 42 2 15z"/>
<path d="M1894 1419 c-8 -14 14 -19 25 -6 8 10 7 14 -5 14 -8 0 -17 -4 -20 -8z"/>
<path d="M1947 1417 c-3 -8 1 -14 8 -14 7 0 11 6 8 14 -3 7 -6 13 -8 13 -2 0
-5 -6 -8 -13z"/>
<path d="M1983 1405 c4 -5 0 -19 -8 -31 -8 -13 -11 -25 -6 -29 5 -3 12 -1 16
5 4 6 12 7 18 3 7 -4 7 0 -1 10 -8 9 -11 21 -8 26 4 5 1 13 -6 17 -7 4 -10 3
-5 -1z"/>
<path d="M2194 1399 c-8 -14 14 -19 25 -6 8 10 7 14 -5 14 -8 0 -17 -4 -20 -8z"/>
<path d="M2066 1391 c-4 -5 -2 -13 4 -16 8 -5 8 -11 1 -19 -8 -10 -5 -18 9
-31 11 -10 20 -16 21 -14 0 2 2 12 4 21 2 10 -1 20 -6 24 -5 3 -7 9 -4 14 3 4
-2 13 -9 19 -9 8 -16 8 -20 2z m30 -57 c2 -12 -1 -13 -12 -3 -7 6 -11 16 -8
21 7 11 17 3 20 -18z"/>
<path d="M2095 1880 c-4 -6 -14 -9 -23 -8 -11 2 -17 -5 -18 -20 -1 -16 2 -20
9 -13 8 8 16 6 27 -4 14 -13 19 -13 36 0 16 13 16 14 1 9 -13 -5 -16 -2 -11
10 3 9 11 13 17 9 6 -3 7 -1 3 5 -4 6 -14 8 -23 5 -11 -4 -14 -3 -9 5 4 7 5
12 2 12 -3 0 -8 -5 -11 -10z m11 -36 c2 -12 -1 -13 -12 -3 -7 6 -11 16 -8 21
7 11 17 3 20 -18z"/>
<path d="M2125 1530 c-3 -4 2 -13 10 -20 8 -7 15 -17 15 -23 0 -6 -3 -7 -7 -4
-3 4 -12 2 -19 -4 -8 -7 -14 -7 -19 1 -4 7 -13 7 -27 -1 -21 -11 -21 -12 -3
-25 14 -10 15 -14 4 -14 -12 0 -12 -2 1 -10 10 -6 20 -4 31 6 8 8 19 11 23 7
4 -5 7 -3 6 2 -4 20 1 30 8 17 10 -15 50 -24 57 -12 3 4 -9 20 -26 34 -28 24
-29 31 -4 26 6 -1 4 4 -2 11 -15 15 -41 20 -48 9z m35 -6 c0 -8 -19 -13 -24
-6 -3 5 1 9 9 9 8 0 15 -2 15 -3z m24 -53 c12 -14 14 -19 4 -17 -22 3 -39 17
-33 27 8 12 9 12 29 -10z m-57 0 c24 21 13 3 -14 -22 -14 -13 -23 -18 -19 -11
4 7 1 15 -9 18 -13 5 -14 8 -3 15 7 4 17 4 22 -1 6 -6 15 -5 23 1z"/>
<path d="M1480 1527 c-12 -21 -12 -21 6 -7 10 8 20 15 22 16 2 1 -1 4 -5 7 -5
3 -15 -4 -23 -16z"/>
<path d="M1655 1440 c-4 -6 -22 -9 -41 -6 -26 2 -37 -1 -44 -15 -7 -12 -7 -20
0 -24 6 -3 8 -17 6 -30 -5 -24 -4 -24 22 -7 18 12 24 13 18 3 -6 -10 -5 -12 2
-7 8 5 10 1 5 -9 -4 -13 -8 -14 -14 -4 -4 8 -11 10 -16 6 -11 -12 16 -25 38
-20 20 6 25 18 11 27 -13 8 -8 41 11 70 10 14 15 26 13 26 -3 0 -8 -5 -11 -10z
m-45 -20 c7 11 10 11 10 2 0 -8 5 -10 13 -6 9 5 9 4 0 -6 -6 -7 -9 -20 -6 -29
4 -11 1 -10 -10 4 -8 11 -19 17 -23 12 -4 -4 -2 -7 4 -7 17 0 15 -17 -2 -23
-10 -4 -13 -1 -10 7 3 8 1 17 -5 20 -6 4 -7 14 -4 22 5 13 7 13 14 2 7 -11 11
-10 19 2z"/>
<path d="M1447 1426 c-15 -12 -15 -14 -2 -19 8 -4 12 -13 9 -22 -3 -8 -11 -12
-18 -8 -6 4 -5 -1 3 -11 8 -9 20 -15 26 -12 7 2 18 0 24 -5 7 -6 8 -5 2 2 -5
6 -7 18 -3 27 4 11 1 14 -11 9 -11 -4 -14 -2 -10 9 3 7 0 14 -7 14 -10 0 -10
3 0 15 15 18 11 19 -13 1z m28 -56 c-3 -5 -12 -10 -18 -10 -7 0 -6 4 3 10 19
12 23 12 15 0z"/>
<path d="M1706 1422 c-3 -5 1 -9 9 -9 8 0 15 4 15 9 0 4 -4 8 -9 8 -6 0 -12
-4 -15 -8z"/>
<path d="M1790 1419 c0 -5 5 -9 12 -9 6 0 9 -3 5 -6 -9 -9 21 -64 36 -64 8 0
7 -4 -3 -10 -13 -9 -13 -10 0 -10 13 0 13 -1 0 -10 -8 -5 -11 -12 -7 -16 4 -4
0 -15 -9 -25 -14 -16 -14 -17 0 -15 8 1 19 5 22 9 4 4 14 2 21 -5 11 -9 16 -9
23 2 7 12 11 12 27 0 17 -14 17 -14 0 7 -18 20 -18 22 0 32 13 7 14 10 4 11
-11 0 -10 4 4 13 18 14 13 43 -6 32 -13 -9 -11 9 4 25 10 12 9 12 -6 0 -15
-11 -20 -11 -26 -1 -5 7 -10 11 -12 10 -2 -2 -17 6 -33 16 -33 22 -56 28 -56
14z m86 -47 c23 -17 44 -29 48 -25 3 3 6 2 6 -4 0 -6 -7 -13 -15 -17 -8 -3
-14 -9 -13 -13 1 -4 -4 -18 -11 -31 -9 -17 -16 -21 -25 -13 -9 7 -17 7 -26 -2
-12 -10 -12 -9 -1 6 7 9 10 17 6 17 -4 0 -2 6 4 13 6 8 8 17 4 20 -3 4 -1 7 5
7 6 0 14 -5 17 -10 4 -6 11 -8 16 -4 5 3 7 10 3 15 -3 5 -10 7 -15 4 -5 -4 -9
-1 -9 4 0 6 -3 10 -7 10 -22 -4 -32 3 -39 24 -13 38 -13 49 -1 39 7 -4 30 -23
53 -40z"/>
<path d="M1831 1379 c9 -13 20 -23 25 -22 5 1 20 -5 34 -13 20 -12 19 -10 -5
11 -16 14 -39 31 -50 37 -19 11 -19 10 -4 -13z"/>
<path d="M1854 1299 c-2 -4 4 -13 14 -20 9 -7 14 -9 10 -5 -4 5 -1 14 8 20 13
10 12 12 -6 12 -12 0 -23 -3 -26 -7z"/>
<path d="M1536 1322 c-2 -4 -1 -14 3 -21 6 -10 10 -9 14 3 6 16 -8 32 -17 18z"/>
<path d="M1521 1384 c14 -17 32 -19 27 -2 -2 6 -12 12 -22 14 -14 2 -15 0 -5
-12z"/>
<path d="M1666 1372 c-3 -5 1 -15 8 -21 11 -10 14 -9 12 3 -3 21 -13 29 -20
18z"/>
<path d="M1875 2100 c-3 -5 -1 -10 4 -10 6 0 11 5 11 10 0 6 -2 10 -4 10 -3 0
-8 -4 -11 -10z"/>
<path d="M2270 1498 c0 -4 7 -8 15 -8 8 0 15 4 15 8 0 5 -7 9 -15 9 -8 0 -15
-4 -15 -9z"/>
</g>
</svg>
